<svg width="375" height="809" viewBox="0 0 375 809" fill="none" xmlns="http://www.w3.org/2000/svg">
<rect width="375" height="809" fill="#8257E5"/>
<rect x="32.5" y="375.5" width="178" height="47" rx="7.5" fill="#FAFAFC" stroke="#E6E6F0"/>
<path d="M55.42 401.34C55.42 397.728 50.156 399.296 50.156 396.776C50.156 395.726 50.982 395.18 52.032 395.208C53.222 395.222 53.838 395.964 53.922 396.622H55.322C55.168 395.138 53.95 394.116 52.088 394.116C50.156 394.116 48.854 395.208 48.854 396.818C48.854 400.444 54.132 398.764 54.132 401.396C54.132 402.32 53.404 403.02 52.172 403.02C50.814 403.02 50.24 402.208 50.156 401.396H48.798C48.826 403.006 50.212 404.098 52.172 404.098C54.286 404.098 55.42 402.726 55.42 401.34ZM60.5568 397.28C61.8728 397.28 62.9928 398.106 62.9788 399.604H58.1348C58.2748 398.106 59.3108 397.28 60.5568 397.28ZM64.1408 401.634H62.7688C62.4888 402.46 61.7608 403.048 60.6128 403.048C59.3108 403.048 58.2188 402.194 58.1208 400.64H64.2528C64.2808 400.374 64.2948 400.15 64.2948 399.87C64.2948 397.77 62.8388 396.202 60.6128 396.202C58.3728 396.202 56.8188 397.728 56.8188 400.15C56.8188 402.586 58.4288 404.126 60.6128 404.126C62.5168 404.126 63.7488 403.034 64.1408 401.634ZM65.9764 404H67.2504V393.64H65.9764V404ZM72.6838 397.28C73.9998 397.28 75.1198 398.106 75.1058 399.604H70.2618C70.4017 398.106 71.4378 397.28 72.6838 397.28ZM76.2678 401.634H74.8958C74.6158 402.46 73.8878 403.048 72.7398 403.048C71.4378 403.048 70.3458 402.194 70.2478 400.64H76.3798C76.4078 400.374 76.4218 400.15 76.4218 399.87C76.4218 397.77 74.9658 396.202 72.7398 396.202C70.4998 396.202 68.9458 397.728 68.9458 400.15C68.9458 402.586 70.5558 404.126 72.7398 404.126C74.6438 404.126 75.8758 403.034 76.2678 401.634ZM77.6274 400.15C77.6274 402.586 79.1814 404.126 81.3654 404.126C83.2694 404.126 84.5154 403.062 84.9074 401.536H83.5354C83.2554 402.502 82.4994 403.048 81.3654 403.048C79.9654 403.048 78.9294 402.054 78.9294 400.15C78.9294 398.274 79.9654 397.28 81.3654 397.28C82.4994 397.28 83.2694 397.868 83.5354 398.792H84.9074C84.5154 397.182 83.2694 396.202 81.3654 396.202C79.1814 396.202 77.6274 397.742 77.6274 400.15ZM86.6073 404H87.8813V396.328H86.6073V404ZM87.2653 395.082C87.7273 395.082 88.1053 394.704 88.1053 394.214C88.1053 393.724 87.7273 393.346 87.2653 393.346C86.7753 393.346 86.3973 393.724 86.3973 394.214C86.3973 394.704 86.7753 395.082 87.2653 395.082ZM97.3326 400.15C97.3326 397.728 95.6386 396.202 93.4546 396.202C91.2846 396.202 89.5766 397.728 89.5766 400.15C89.5766 402.586 91.2286 404.126 93.3986 404.126C95.5826 404.126 97.3326 402.586 97.3326 400.15ZM90.8786 400.15C90.8786 398.218 92.0966 397.308 93.4406 397.308C94.7566 397.308 96.0306 398.218 96.0306 400.15C96.0306 402.096 94.7286 403.006 93.3986 403.006C92.0686 403.006 90.8786 402.096 90.8786 400.15ZM104.622 404H105.882V399.478C105.882 397.28 104.524 396.188 102.746 396.188C101.71 396.188 100.786 396.622 100.282 397.42V396.328H99.0077V404H100.282V399.758C100.282 398.106 101.178 397.294 102.48 397.294C103.768 397.294 104.622 398.092 104.622 399.66V404ZM111.225 397.28C112.541 397.28 113.661 398.106 113.647 399.604H108.803C108.943 398.106 109.979 397.28 111.225 397.28ZM114.809 401.634H113.437C113.157 402.46 112.429 403.048 111.281 403.048C109.979 403.048 108.887 402.194 108.789 400.64H114.921C114.949 400.374 114.963 400.15 114.963 399.87C114.963 397.77 113.507 396.202 111.281 396.202C109.041 396.202 107.487 397.728 107.487 400.15C107.487 402.586 109.097 404.126 111.281 404.126C113.185 404.126 114.417 403.034 114.809 401.634Z" fill="#C1BCCC"/>
<rect x="32.5" y="293.5" width="310" height="47" rx="7.5" fill="#FAFAFC" stroke="#E6E6F0"/>
<rect x="219.5" y="375.5" width="123" height="47" rx="7.5" fill="#FAFAFC" stroke="#E6E6F0"/>
<path d="M55.42 319.34C55.42 315.728 50.156 317.296 50.156 314.776C50.156 313.726 50.982 313.18 52.032 313.208C53.222 313.222 53.838 313.964 53.922 314.622H55.322C55.168 313.138 53.95 312.116 52.088 312.116C50.156 312.116 48.854 313.208 48.854 314.818C48.854 318.444 54.132 316.764 54.132 319.396C54.132 320.32 53.404 321.02 52.172 321.02C50.814 321.02 50.24 320.208 50.156 319.396H48.798C48.826 321.006 50.212 322.098 52.172 322.098C54.286 322.098 55.42 320.726 55.42 319.34ZM60.5568 315.28C61.8728 315.28 62.9928 316.106 62.9788 317.604H58.1348C58.2748 316.106 59.3108 315.28 60.5568 315.28ZM64.1408 319.634H62.7688C62.4888 320.46 61.7608 321.048 60.6128 321.048C59.3108 321.048 58.2188 320.194 58.1208 318.64H64.2528C64.2808 318.374 64.2948 318.15 64.2948 317.87C64.2948 315.77 62.8388 314.202 60.6128 314.202C58.3728 314.202 56.8188 315.728 56.8188 318.15C56.8188 320.586 58.4288 322.126 60.6128 322.126C62.5168 322.126 63.7488 321.034 64.1408 319.634ZM65.9764 322H67.2504V311.64H65.9764V322ZM72.6838 315.28C73.9998 315.28 75.1198 316.106 75.1058 317.604H70.2618C70.4017 316.106 71.4378 315.28 72.6838 315.28ZM76.2678 319.634H74.8958C74.6158 320.46 73.8878 321.048 72.7398 321.048C71.4378 321.048 70.3458 320.194 70.2478 318.64H76.3798C76.4078 318.374 76.4218 318.15 76.4218 317.87C76.4218 315.77 74.9658 314.202 72.7398 314.202C70.4998 314.202 68.9458 315.728 68.9458 318.15C68.9458 320.586 70.5558 322.126 72.7398 322.126C74.6438 322.126 75.8758 321.034 76.2678 319.634ZM77.6274 318.15C77.6274 320.586 79.1814 322.126 81.3654 322.126C83.2694 322.126 84.5154 321.062 84.9074 319.536H83.5354C83.2554 320.502 82.4994 321.048 81.3654 321.048C79.9654 321.048 78.9294 320.054 78.9294 318.15C78.9294 316.274 79.9654 315.28 81.3654 315.28C82.4994 315.28 83.2694 315.868 83.5354 316.792H84.9074C84.5154 315.182 83.2694 314.202 81.3654 314.202C79.1814 314.202 77.6274 315.742 77.6274 318.15ZM86.6073 322H87.8813V314.328H86.6073V322ZM87.2653 313.082C87.7273 313.082 88.1053 312.704 88.1053 312.214C88.1053 311.724 87.7273 311.346 87.2653 311.346C86.7753 311.346 86.3973 311.724 86.3973 312.214C86.3973 312.704 86.7753 313.082 87.2653 313.082ZM97.3326 318.15C97.3326 315.728 95.6386 314.202 93.4546 314.202C91.2846 314.202 89.5766 315.728 89.5766 318.15C89.5766 320.586 91.2286 322.126 93.3986 322.126C95.5826 322.126 97.3326 320.586 97.3326 318.15ZM90.8786 318.15C90.8786 316.218 92.0966 315.308 93.4406 315.308C94.7566 315.308 96.0306 316.218 96.0306 318.15C96.0306 320.096 94.7286 321.006 93.3986 321.006C92.0686 321.006 90.8786 320.096 90.8786 318.15ZM104.622 322H105.882V317.478C105.882 315.28 104.524 314.188 102.746 314.188C101.71 314.188 100.786 314.622 100.282 315.42V314.328H99.0077V322H100.282V317.758C100.282 316.106 101.178 315.294 102.48 315.294C103.768 315.294 104.622 316.092 104.622 317.66V322ZM111.225 315.28C112.541 315.28 113.661 316.106 113.647 317.604H108.803C108.943 316.106 109.979 315.28 111.225 315.28ZM114.809 319.634H113.437C113.157 320.46 112.429 321.048 111.281 321.048C109.979 321.048 108.887 320.194 108.789 318.64H114.921C114.949 318.374 114.963 318.15 114.963 317.87C114.963 315.77 113.507 314.202 111.281 314.202C109.041 314.202 107.487 315.728 107.487 318.15C107.487 320.586 109.097 322.126 111.281 322.126C113.185 322.126 114.417 321.034 114.809 319.634Z" fill="#C1BCCC"/>
<path d="M35.528 355.636H32.924V364H35.528C38.276 364 39.968 362.428 39.968 359.836C39.968 357.244 38.276 355.636 35.528 355.636ZM34.016 363.1V356.524H35.528C37.712 356.524 38.852 357.796 38.852 359.836C38.852 361.876 37.712 363.1 35.528 363.1H34.016ZM41.4084 364H42.5004V357.424H41.4084V364ZM41.9724 356.356C42.3684 356.356 42.6924 356.032 42.6924 355.612C42.6924 355.192 42.3684 354.868 41.9724 354.868C41.5524 354.868 41.2284 355.192 41.2284 355.612C41.2284 356.032 41.5524 356.356 41.9724 356.356ZM43.9535 360.688C43.9535 362.728 45.3095 364.108 47.0615 364.108C48.2735 364.108 49.1255 363.484 49.5215 362.776V364H50.6255V357.424H49.5215V358.624C49.1375 357.94 48.2975 357.316 47.0735 357.316C45.3095 357.316 43.9535 358.636 43.9535 360.688ZM49.5215 360.7C49.5215 362.248 48.4895 363.148 47.2895 363.148C46.0895 363.148 45.0695 362.236 45.0695 360.688C45.0695 359.14 46.0895 358.264 47.2895 358.264C48.4895 358.264 49.5215 359.176 49.5215 360.7ZM55.2621 360.688C55.2621 362.728 56.6181 364.108 58.3821 364.108C59.5821 364.108 60.4341 363.496 60.8301 362.764V364H61.9341V355.12H60.8301V358.6C60.3741 357.844 59.4261 357.316 58.3941 357.316C56.6181 357.316 55.2621 358.636 55.2621 360.688ZM60.8301 360.7C60.8301 362.248 59.7981 363.148 58.5981 363.148C57.3981 363.148 56.3781 362.236 56.3781 360.688C56.3781 359.14 57.3981 358.264 58.5981 358.264C59.7981 358.264 60.8301 359.176 60.8301 360.7ZM63.3715 360.688C63.3715 362.728 64.7275 364.108 66.4795 364.108C67.6915 364.108 68.5435 363.484 68.9395 362.776V364H70.0435V357.424H68.9395V358.624C68.5555 357.94 67.7155 357.316 66.4915 357.316C64.7275 357.316 63.3715 358.636 63.3715 360.688ZM68.9395 360.7C68.9395 362.248 67.9075 363.148 66.7075 363.148C65.5075 363.148 64.4875 362.236 64.4875 360.688C64.4875 359.14 65.5075 358.264 66.7075 358.264C67.9075 358.264 68.9395 359.176 68.9395 360.7ZM79.8161 362.212C79.7681 359.86 75.9521 360.712 75.9521 359.152C75.9521 358.624 76.4321 358.24 77.2361 358.24C78.1121 358.24 78.6161 358.72 78.6641 359.38H79.7561C79.6841 358.096 78.7241 357.316 77.2721 357.316C75.8081 357.316 74.8601 358.144 74.8601 359.152C74.8601 361.6 78.7481 360.748 78.7481 362.212C78.7481 362.752 78.2681 363.184 77.4041 363.184C76.4801 363.184 75.9161 362.704 75.8561 362.068H74.7281C74.8001 363.268 75.8801 364.108 77.4161 364.108C78.8681 364.108 79.8161 363.292 79.8161 362.212ZM84.1536 358.24C85.2816 358.24 86.2416 358.948 86.2296 360.232H82.0776C82.1976 358.948 83.0856 358.24 84.1536 358.24ZM87.2256 361.972H86.0496C85.8096 362.68 85.1856 363.184 84.2016 363.184C83.0856 363.184 82.1496 362.452 82.0656 361.12H87.3216C87.3456 360.892 87.3576 360.7 87.3576 360.46C87.3576 358.66 86.1096 357.316 84.2016 357.316C82.2816 357.316 80.9496 358.624 80.9496 360.7C80.9496 362.788 82.3296 364.108 84.2016 364.108C85.8336 364.108 86.8896 363.172 87.2256 361.972ZM98.291 364H99.371V360.124C99.371 358.24 98.207 357.304 96.707 357.304C95.699 357.304 94.763 357.82 94.379 358.768C93.947 357.784 93.047 357.304 91.967 357.304C91.103 357.304 90.323 357.676 89.891 358.372V357.424H88.799V364H89.891V360.376C89.891 358.96 90.647 358.252 91.751 358.252C92.831 358.252 93.551 358.936 93.551 360.28V364H94.631V360.376C94.631 358.96 95.387 358.252 96.491 358.252C97.571 358.252 98.291 358.936 98.291 360.28V364ZM100.754 360.688C100.754 362.728 102.11 364.108 103.862 364.108C105.074 364.108 105.926 363.484 106.322 362.776V364H107.426V357.424H106.322V358.624C105.938 357.94 105.098 357.316 103.874 357.316C102.11 357.316 100.754 358.636 100.754 360.688ZM106.322 360.7C106.322 362.248 105.29 363.148 104.09 363.148C102.89 363.148 101.87 362.236 101.87 360.688C101.87 359.14 102.89 358.264 104.09 358.264C105.29 358.264 106.322 359.176 106.322 360.7ZM114.084 364H115.164V360.124C115.164 358.24 114 357.304 112.476 357.304C111.588 357.304 110.796 357.676 110.364 358.36V357.424H109.272V364H110.364V360.364C110.364 358.948 111.132 358.252 112.248 358.252C113.352 358.252 114.084 358.936 114.084 360.28V364ZM116.539 360.688C116.539 362.728 117.895 364.108 119.647 364.108C120.859 364.108 121.711 363.484 122.107 362.776V364H123.211V357.424H122.107V358.624C121.723 357.94 120.883 357.316 119.659 357.316C117.895 357.316 116.539 358.636 116.539 360.688ZM122.107 360.7C122.107 362.248 121.075 363.148 119.875 363.148C118.675 363.148 117.655 362.236 117.655 360.688C117.655 359.14 118.675 358.264 119.875 358.264C121.075 358.264 122.107 359.176 122.107 360.7Z" fill="#D4C2FF"/>
<path d="M32.924 282H34.016V275.796L36.788 282H37.556L40.316 275.808V282H41.408V273.696H40.244L37.172 280.56L34.1 273.696H32.924V282ZM42.8519 278.688C42.8519 280.728 44.2079 282.108 45.9599 282.108C47.1719 282.108 48.0239 281.484 48.4199 280.776V282H49.5239V275.424H48.4199V276.624C48.0359 275.94 47.1959 275.316 45.9719 275.316C44.2079 275.316 42.8519 276.636 42.8519 278.688ZM48.4199 278.7C48.4199 280.248 47.3879 281.148 46.1879 281.148C44.9879 281.148 43.9679 280.236 43.9679 278.688C43.9679 277.14 44.9879 276.264 46.1879 276.264C47.3879 276.264 48.4199 277.176 48.4199 278.7ZM51.6093 280.2C51.6093 281.52 52.2693 282 53.4333 282H54.4173V281.076H53.6133C52.9413 281.076 52.7013 280.848 52.7013 280.2V276.324H54.4173V275.424H52.7013V273.768H51.6093V275.424H50.7573V276.324H51.6093V280.2ZM58.5364 276.24C59.6644 276.24 60.6244 276.948 60.6124 278.232H56.4604C56.5804 276.948 57.4684 276.24 58.5364 276.24ZM61.6084 279.972H60.4324C60.1924 280.68 59.5684 281.184 58.5844 281.184C57.4684 281.184 56.5324 280.452 56.4484 279.12H61.7044C61.7284 278.892 61.7404 278.7 61.7404 278.46C61.7404 276.66 60.4924 275.316 58.5844 275.316C56.6644 275.316 55.3324 276.624 55.3324 278.7C55.3324 280.788 56.7124 282.108 58.5844 282.108C60.2164 282.108 61.2724 281.172 61.6084 279.972ZM57.1564 274.116V274.932L59.7124 273.564V272.616L57.1564 274.116ZM64.2738 278.424C64.2738 276.9 65.0658 276.432 66.1098 276.432H66.3978V275.304C65.3538 275.304 64.6458 275.76 64.2738 276.492V275.424H63.1818V282H64.2738V278.424ZM67.6584 282H68.7504V275.424H67.6584V282ZM68.2224 274.356C68.6184 274.356 68.9424 274.032 68.9424 273.612C68.9424 273.192 68.6184 272.868 68.2224 272.868C67.8024 272.868 67.4784 273.192 67.4784 273.612C67.4784 274.032 67.8024 274.356 68.2224 274.356ZM70.2035 278.688C70.2035 280.728 71.5595 282.108 73.3115 282.108C74.5235 282.108 75.3755 281.484 75.7715 280.776V282H76.8755V275.424H75.7715V276.624C75.3875 275.94 74.5475 275.316 73.3235 275.316C71.5595 275.316 70.2035 276.636 70.2035 278.688ZM75.7715 278.7C75.7715 280.248 74.7395 281.148 73.5395 281.148C72.3395 281.148 71.3195 280.236 71.3195 278.688C71.3195 277.14 72.3395 276.264 73.5395 276.264C74.7395 276.264 75.7715 277.176 75.7715 278.7Z" fill="#D4C2FF"/>
<path d="M225.276 364H226.368V355.636H225.276V359.308H221.016V355.636H219.924V364H221.016V360.208H225.276V364ZM234.461 360.7C234.461 358.624 233.009 357.316 231.137 357.316C229.277 357.316 227.813 358.624 227.813 360.7C227.813 362.788 229.229 364.108 231.089 364.108C232.961 364.108 234.461 362.788 234.461 360.7ZM228.929 360.7C228.929 359.044 229.973 358.264 231.125 358.264C232.253 358.264 233.345 359.044 233.345 360.7C233.345 362.368 232.229 363.148 231.089 363.148C229.949 363.148 228.929 362.368 228.929 360.7ZM236.989 360.424C236.989 358.9 237.781 358.432 238.825 358.432H239.113V357.304C238.069 357.304 237.361 357.76 236.989 358.492V357.424H235.897V364H236.989V360.424ZM239.965 360.688C239.965 362.728 241.321 364.108 243.073 364.108C244.285 364.108 245.137 363.484 245.533 362.776V364H246.637V357.424H245.533V358.624C245.149 357.94 244.309 357.316 243.085 357.316C241.321 357.316 239.965 358.636 239.965 360.688ZM245.533 360.7C245.533 362.248 244.501 363.148 243.301 363.148C242.101 363.148 241.081 362.236 241.081 360.688C241.081 359.14 242.101 358.264 243.301 358.264C244.501 358.264 245.533 359.176 245.533 360.7ZM242.125 356.116V356.932L244.681 355.564V354.616L242.125 356.116ZM249.575 360.424C249.575 358.9 250.367 358.432 251.411 358.432H251.699V357.304C250.655 357.304 249.947 357.76 249.575 358.492V357.424H248.483V364H249.575V360.424ZM252.959 364H254.051V357.424H252.959V364ZM253.523 356.356C253.919 356.356 254.243 356.032 254.243 355.612C254.243 355.192 253.919 354.868 253.523 354.868C253.103 354.868 252.779 355.192 252.779 355.612C252.779 356.032 253.103 356.356 253.523 356.356ZM262.152 360.7C262.152 358.624 260.7 357.316 258.828 357.316C256.968 357.316 255.504 358.624 255.504 360.7C255.504 362.788 256.92 364.108 258.78 364.108C260.652 364.108 262.152 362.788 262.152 360.7ZM256.62 360.7C256.62 359.044 257.664 358.264 258.816 358.264C259.944 358.264 261.036 359.044 261.036 360.7C261.036 362.368 259.92 363.148 258.78 363.148C257.64 363.148 256.62 362.368 256.62 360.7Z" fill="#D4C2FF"/>
<path d="M242.42 401.34C242.42 397.728 237.156 399.296 237.156 396.776C237.156 395.726 237.982 395.18 239.032 395.208C240.222 395.222 240.838 395.964 240.922 396.622H242.322C242.168 395.138 240.95 394.116 239.088 394.116C237.156 394.116 235.854 395.208 235.854 396.818C235.854 400.444 241.132 398.764 241.132 401.396C241.132 402.32 240.404 403.02 239.172 403.02C237.814 403.02 237.24 402.208 237.156 401.396H235.798C235.826 403.006 237.212 404.098 239.172 404.098C241.286 404.098 242.42 402.726 242.42 401.34ZM247.557 397.28C248.873 397.28 249.993 398.106 249.979 399.604H245.135C245.275 398.106 246.311 397.28 247.557 397.28ZM251.141 401.634H249.769C249.489 402.46 248.761 403.048 247.613 403.048C246.311 403.048 245.219 402.194 245.121 400.64H251.253C251.281 400.374 251.295 400.15 251.295 399.87C251.295 397.77 249.839 396.202 247.613 396.202C245.373 396.202 243.819 397.728 243.819 400.15C243.819 402.586 245.429 404.126 247.613 404.126C249.517 404.126 250.749 403.034 251.141 401.634ZM252.976 404H254.25V393.64H252.976V404ZM259.684 397.28C261 397.28 262.12 398.106 262.106 399.604H257.262C257.402 398.106 258.438 397.28 259.684 397.28ZM263.268 401.634H261.896C261.616 402.46 260.888 403.048 259.74 403.048C258.438 403.048 257.346 402.194 257.248 400.64H263.38C263.408 400.374 263.422 400.15 263.422 399.87C263.422 397.77 261.966 396.202 259.74 396.202C257.5 396.202 255.946 397.728 255.946 400.15C255.946 402.586 257.556 404.126 259.74 404.126C261.644 404.126 262.876 403.034 263.268 401.634ZM264.627 400.15C264.627 402.586 266.181 404.126 268.365 404.126C270.269 404.126 271.515 403.062 271.907 401.536H270.535C270.255 402.502 269.499 403.048 268.365 403.048C266.965 403.048 265.929 402.054 265.929 400.15C265.929 398.274 266.965 397.28 268.365 397.28C269.499 397.28 270.269 397.868 270.535 398.792H271.907C271.515 397.182 270.269 396.202 268.365 396.202C266.181 396.202 264.627 397.742 264.627 400.15ZM273.607 404H274.881V396.328H273.607V404ZM274.265 395.082C274.727 395.082 275.105 394.704 275.105 394.214C275.105 393.724 274.727 393.346 274.265 393.346C273.775 393.346 273.397 393.724 273.397 394.214C273.397 394.704 273.775 395.082 274.265 395.082ZM284.333 400.15C284.333 397.728 282.639 396.202 280.455 396.202C278.285 396.202 276.577 397.728 276.577 400.15C276.577 402.586 278.229 404.126 280.399 404.126C282.583 404.126 284.333 402.586 284.333 400.15ZM277.879 400.15C277.879 398.218 279.097 397.308 280.441 397.308C281.757 397.308 283.031 398.218 283.031 400.15C283.031 402.096 281.729 403.006 280.399 403.006C279.069 403.006 277.879 402.096 277.879 400.15ZM291.622 404H292.882V399.478C292.882 397.28 291.524 396.188 289.746 396.188C288.71 396.188 287.786 396.622 287.282 397.42V396.328H286.008V404H287.282V399.758C287.282 398.106 288.178 397.294 289.48 397.294C290.768 397.294 291.622 398.092 291.622 399.66V404ZM298.225 397.28C299.541 397.28 300.661 398.106 300.647 399.604H295.803C295.943 398.106 296.979 397.28 298.225 397.28ZM301.809 401.634H300.437C300.157 402.46 299.429 403.048 298.281 403.048C296.979 403.048 295.887 402.194 295.789 400.64H301.921C301.949 400.374 301.963 400.15 301.963 399.87C301.963 397.77 300.507 396.202 298.281 396.202C296.041 396.202 294.487 397.728 294.487 400.15C294.487 402.586 296.097 404.126 298.281 404.126C300.185 404.126 301.417 403.034 301.809 401.634Z" fill="#C1BCCC"/>
<path d="M186 397L190 401L194 397" stroke="#9C98A6" stroke-width="1.5" stroke-linecap="round" stroke-linejoin="round"/>
<path d="M318 397L322 401L326 397" stroke="#9C98A6" stroke-width="1.5" stroke-linecap="round" stroke-linejoin="round"/>
<path d="M318 315L322 319L326 315" stroke="#9C98A6" stroke-width="1.5" stroke-linecap="round" stroke-linejoin="round"/>
<path d="M73.264 218.024H81.04V219.352H74.784V222.84H80.464V224.168H74.784V229H73.264V218.024ZM82.8533 217.432H84.2453V218.952H82.8533V217.432ZM82.8533 220.584H84.2613V229H82.8533V220.584ZM86.4001 217.432H87.8081V229H86.4001V217.432ZM91.851 229.176C91.275 229.176 90.8537 229.005 90.587 228.664C90.3203 228.323 90.187 227.901 90.187 227.4V221.752H89.163V220.584H90.203L90.507 218.248H91.595V220.584H93.019V221.752H91.595V227.272C91.595 227.773 91.8297 228.024 92.299 228.024H93.019V228.952C92.8803 229.016 92.699 229.069 92.475 229.112C92.251 229.155 92.043 229.176 91.851 229.176ZM94.4001 220.584H95.4721L95.6321 221.848H95.7281C95.8881 221.432 96.1281 221.085 96.4481 220.808C96.7681 220.531 97.1895 220.392 97.7121 220.392C98.0001 220.392 98.2508 220.435 98.4641 220.52V221.88H97.8721C97.2748 221.88 96.7788 222.056 96.3841 222.408C96.0001 222.749 95.8081 223.288 95.8081 224.024V229H94.4001V220.584ZM102.016 229.192C101.291 229.192 100.646 229.021 100.08 228.68C99.5149 228.339 99.2323 227.72 99.2323 226.824C99.2323 225.747 99.7123 225.011 100.672 224.616C101.632 224.211 103.019 224.008 104.832 224.008V223.08C104.832 222.589 104.694 222.216 104.416 221.96C104.139 221.693 103.638 221.56 102.912 221.56C102.23 221.56 101.739 221.688 101.44 221.944C101.152 222.2 101.008 222.515 101.008 222.888V223.08H99.6483C99.6376 223.016 99.6323 222.899 99.6323 222.728C99.6323 221.981 99.9416 221.405 100.56 221C101.179 220.595 102.006 220.392 103.04 220.392C104.086 220.392 104.88 220.611 105.424 221.048C105.968 221.485 106.24 222.104 106.24 222.904V227.464C106.24 227.656 106.294 227.8 106.4 227.896C106.507 227.981 106.64 228.024 106.8 228.024H107.44V228.936C107.163 229.064 106.8 229.128 106.352 229.128C105.99 229.128 105.686 229.021 105.44 228.808C105.195 228.584 105.03 228.291 104.944 227.928H104.832C104.544 228.323 104.15 228.632 103.648 228.856C103.158 229.08 102.614 229.192 102.016 229.192ZM102.384 228.024C102.8 228.024 103.195 227.939 103.568 227.768C103.942 227.597 104.246 227.347 104.48 227.016C104.715 226.675 104.832 226.264 104.832 225.784V225.176C103.456 225.176 102.422 225.288 101.728 225.512C101.046 225.725 100.704 226.136 100.704 226.744C100.704 227.203 100.843 227.533 101.12 227.736C101.408 227.928 101.83 228.024 102.384 228.024ZM108.619 220.584H109.691L109.851 221.848H109.947C110.107 221.432 110.347 221.085 110.667 220.808C110.987 220.531 111.408 220.392 111.931 220.392C112.219 220.392 112.47 220.435 112.683 220.52V221.88H112.091C111.494 221.88 110.998 222.056 110.603 222.408C110.219 222.749 110.027 223.288 110.027 224.024V229H108.619V220.584ZM118.4 220.584H119.456L119.632 221.72H119.728C120.005 221.283 120.368 220.952 120.816 220.728C121.275 220.504 121.781 220.392 122.336 220.392C123.403 220.392 124.224 220.749 124.8 221.464C125.376 222.179 125.664 223.288 125.664 224.792C125.664 226.264 125.376 227.368 124.8 228.104C124.235 228.829 123.456 229.192 122.464 229.192C121.867 229.192 121.36 229.101 120.944 228.92C120.528 228.739 120.181 228.445 119.904 228.04H119.808V231.768H118.4V220.584ZM121.984 228.024C122.528 228.024 122.96 227.923 123.28 227.72C123.6 227.517 123.835 227.187 123.984 226.728C124.133 226.269 124.208 225.645 124.208 224.856V224.792C124.208 223.992 124.133 223.357 123.984 222.888C123.835 222.419 123.595 222.083 123.264 221.88C122.944 221.667 122.517 221.56 121.984 221.56C121.237 221.56 120.688 221.832 120.336 222.376C119.984 222.92 119.808 223.725 119.808 224.792V224.856C119.808 225.901 119.979 226.691 120.32 227.224C120.672 227.757 121.227 228.024 121.984 228.024ZM130.667 229.192C129.376 229.192 128.405 228.835 127.755 228.12C127.104 227.395 126.779 226.285 126.779 224.792C126.779 223.299 127.104 222.195 127.755 221.48C128.405 220.755 129.376 220.392 130.667 220.392C131.957 220.392 132.928 220.755 133.579 221.48C134.229 222.195 134.555 223.299 134.555 224.792C134.555 226.285 134.229 227.395 133.579 228.12C132.928 228.835 131.957 229.192 130.667 229.192ZM130.667 228.024C131.52 228.024 132.139 227.779 132.523 227.288C132.907 226.787 133.099 225.976 133.099 224.856V224.728C133.099 223.608 132.907 222.803 132.523 222.312C132.139 221.811 131.52 221.56 130.667 221.56C129.813 221.56 129.195 221.811 128.811 222.312C128.427 222.803 128.235 223.608 128.235 224.728V224.856C128.235 225.976 128.427 226.787 128.811 227.288C129.195 227.779 129.813 228.024 130.667 228.024ZM136.181 220.584H137.253L137.413 221.848H137.509C137.669 221.432 137.909 221.085 138.229 220.808C138.549 220.531 138.971 220.392 139.493 220.392C139.781 220.392 140.032 220.435 140.245 220.52V221.88H139.653C139.056 221.88 138.56 222.056 138.165 222.408C137.781 222.749 137.589 223.288 137.589 224.024V229H136.181V220.584ZM148.779 229.192C147.712 229.192 146.891 228.835 146.315 228.12C145.739 227.405 145.451 226.296 145.451 224.792C145.451 223.32 145.733 222.221 146.299 221.496C146.875 220.76 147.659 220.392 148.651 220.392C149.248 220.392 149.755 220.483 150.171 220.664C150.587 220.845 150.933 221.139 151.211 221.544H151.307V217.432H152.715V229H151.659L151.483 227.864H151.387C151.109 228.301 150.741 228.632 150.283 228.856C149.835 229.08 149.333 229.192 148.779 229.192ZM149.131 228.024C149.888 228.024 150.437 227.757 150.779 227.224C151.131 226.691 151.307 225.901 151.307 224.856V224.792C151.307 223.725 151.131 222.92 150.779 222.376C150.427 221.832 149.877 221.56 149.131 221.56C148.597 221.56 148.165 221.667 147.835 221.88C147.515 222.083 147.28 222.419 147.131 222.888C146.981 223.357 146.907 223.992 146.907 224.792V224.856C146.907 225.645 146.981 226.269 147.131 226.728C147.28 227.187 147.515 227.517 147.835 227.72C148.155 227.923 148.587 228.024 149.131 228.024ZM154.853 217.432H156.245V218.952H154.853V217.432ZM154.853 220.584H156.261V229H154.853V220.584ZM160.688 229.192C159.963 229.192 159.317 229.021 158.752 228.68C158.187 228.339 157.904 227.72 157.904 226.824C157.904 225.747 158.384 225.011 159.344 224.616C160.304 224.211 161.691 224.008 163.504 224.008V223.08C163.504 222.589 163.365 222.216 163.088 221.96C162.811 221.693 162.309 221.56 161.584 221.56C160.901 221.56 160.411 221.688 160.112 221.944C159.824 222.2 159.68 222.515 159.68 222.888V223.08H158.32C158.309 223.016 158.304 222.899 158.304 222.728C158.304 221.981 158.613 221.405 159.232 221C159.851 220.595 160.677 220.392 161.712 220.392C162.757 220.392 163.552 220.611 164.096 221.048C164.64 221.485 164.912 222.104 164.912 222.904V227.464C164.912 227.656 164.965 227.8 165.072 227.896C165.179 227.981 165.312 228.024 165.472 228.024H166.112V228.936C165.835 229.064 165.472 229.128 165.024 229.128C164.661 229.128 164.357 229.021 164.112 228.808C163.867 228.584 163.701 228.291 163.616 227.928H163.504C163.216 228.323 162.821 228.632 162.32 228.856C161.829 229.08 161.285 229.192 160.688 229.192ZM161.056 228.024C161.472 228.024 161.867 227.939 162.24 227.768C162.613 227.597 162.917 227.347 163.152 227.016C163.387 226.675 163.504 226.264 163.504 225.784V225.176C162.128 225.176 161.093 225.288 160.4 225.512C159.717 225.725 159.376 226.136 159.376 226.744C159.376 227.203 159.515 227.533 159.792 227.736C160.08 227.928 160.501 228.024 161.056 228.024ZM168.283 229H167.643V227.272H169.243V228.856L168.475 231.144H167.643L168.283 229ZM176.197 217.432H177.605V221.528H177.717C178.304 220.771 179.189 220.392 180.373 220.392C182.122 220.392 182.997 221.347 182.997 223.256V229H181.589V223.352C181.589 222.68 181.44 222.216 181.141 221.96C180.842 221.693 180.41 221.56 179.845 221.56C179.44 221.56 179.066 221.661 178.725 221.864C178.384 222.056 178.112 222.339 177.909 222.712C177.706 223.085 177.605 223.523 177.605 224.024V229H176.197V217.432ZM188.464 229.192C187.173 229.192 186.202 228.835 185.552 228.12C184.901 227.395 184.576 226.285 184.576 224.792C184.576 223.299 184.901 222.195 185.552 221.48C186.202 220.755 187.173 220.392 188.464 220.392C189.754 220.392 190.725 220.755 191.376 221.48C192.026 222.195 192.352 223.299 192.352 224.792C192.352 226.285 192.026 227.395 191.376 228.12C190.725 228.835 189.754 229.192 188.464 229.192ZM188.464 228.024C189.317 228.024 189.936 227.779 190.32 227.288C190.704 226.787 190.896 225.976 190.896 224.856V224.728C190.896 223.608 190.704 222.803 190.32 222.312C189.936 221.811 189.317 221.56 188.464 221.56C187.61 221.56 186.992 221.811 186.608 222.312C186.224 222.803 186.032 223.608 186.032 224.728V224.856C186.032 225.976 186.224 226.787 186.608 227.288C186.992 227.779 187.61 228.024 188.464 228.024ZM193.978 220.584H195.05L195.21 221.848H195.306C195.466 221.432 195.706 221.085 196.026 220.808C196.346 220.531 196.768 220.392 197.29 220.392C197.578 220.392 197.829 220.435 198.042 220.52V221.88H197.45C196.853 221.88 196.357 222.056 195.962 222.408C195.578 222.749 195.386 223.288 195.386 224.024V229H193.978V220.584ZM201.594 229.192C200.869 229.192 200.224 229.021 199.658 228.68C199.093 228.339 198.81 227.72 198.81 226.824C198.81 225.747 199.29 225.011 200.25 224.616C201.21 224.211 202.597 224.008 204.41 224.008V223.08C204.41 222.589 204.272 222.216 203.994 221.96C203.717 221.693 203.216 221.56 202.49 221.56C201.808 221.56 201.317 221.688 201.018 221.944C200.73 222.2 200.586 222.515 200.586 222.888V223.08H199.226C199.216 223.016 199.21 222.899 199.21 222.728C199.21 221.981 199.52 221.405 200.138 221C200.757 220.595 201.584 220.392 202.618 220.392C203.664 220.392 204.458 220.611 205.002 221.048C205.546 221.485 205.818 222.104 205.818 222.904V227.464C205.818 227.656 205.872 227.8 205.978 227.896C206.085 227.981 206.218 228.024 206.378 228.024H207.018V228.936C206.741 229.064 206.378 229.128 205.93 229.128C205.568 229.128 205.264 229.021 205.018 228.808C204.773 228.584 204.608 228.291 204.522 227.928H204.41C204.122 228.323 203.728 228.632 203.226 228.856C202.736 229.08 202.192 229.192 201.594 229.192ZM201.962 228.024C202.378 228.024 202.773 227.939 203.146 227.768C203.52 227.597 203.824 227.347 204.058 227.016C204.293 226.675 204.41 226.264 204.41 225.784V225.176C203.034 225.176 202 225.288 201.306 225.512C200.624 225.725 200.282 226.136 200.282 226.744C200.282 227.203 200.421 227.533 200.698 227.736C200.986 227.928 201.408 228.024 201.962 228.024ZM216.218 229.192C214.863 229.192 213.855 228.835 213.194 228.12C212.533 227.405 212.202 226.296 212.202 224.792C212.202 223.288 212.533 222.179 213.194 221.464C213.855 220.749 214.863 220.392 216.218 220.392C217.434 220.392 218.341 220.717 218.938 221.368C219.546 222.008 219.85 223.043 219.85 224.472V225.176H213.658C213.711 226.147 213.941 226.867 214.346 227.336C214.762 227.795 215.386 228.024 216.218 228.024C216.89 228.024 217.434 227.869 217.85 227.56C218.266 227.251 218.474 226.776 218.474 226.136H219.85C219.85 227.117 219.509 227.875 218.826 228.408C218.154 228.931 217.285 229.192 216.218 229.192ZM218.378 224.008C218.378 222.376 217.658 221.56 216.218 221.56C215.418 221.56 214.815 221.752 214.41 222.136C214.015 222.52 213.775 223.144 213.69 224.008H218.378ZM225.994 220.584H227.066L227.226 221.72H227.338C227.914 220.835 228.757 220.392 229.866 220.392C230.954 220.392 231.679 220.835 232.042 221.72H232.138C232.426 221.293 232.799 220.968 233.258 220.744C233.727 220.509 234.223 220.392 234.746 220.392C236.399 220.392 237.226 221.24 237.226 222.936V229H235.818V223.192C235.818 222.584 235.685 222.163 235.418 221.928C235.151 221.683 234.783 221.56 234.314 221.56C233.749 221.56 233.274 221.784 232.89 222.232C232.506 222.68 232.314 223.277 232.314 224.024V229H230.906V223.192C230.906 222.584 230.778 222.163 230.522 221.928C230.266 221.683 229.903 221.56 229.434 221.56C229.071 221.56 228.735 221.661 228.426 221.864C228.117 222.056 227.866 222.339 227.674 222.712C227.493 223.085 227.402 223.523 227.402 224.024V229H225.994V220.584ZM241.61 229.192C240.885 229.192 240.239 229.021 239.674 228.68C239.109 228.339 238.826 227.72 238.826 226.824C238.826 225.747 239.306 225.011 240.266 224.616C241.226 224.211 242.613 224.008 244.426 224.008V223.08C244.426 222.589 244.287 222.216 244.01 221.96C243.733 221.693 243.231 221.56 242.506 221.56C241.823 221.56 241.333 221.688 241.034 221.944C240.746 222.2 240.602 222.515 240.602 222.888V223.08H239.242C239.231 223.016 239.226 222.899 239.226 222.728C239.226 221.981 239.535 221.405 240.154 221C240.773 220.595 241.599 220.392 242.634 220.392C243.679 220.392 244.474 220.611 245.018 221.048C245.562 221.485 245.834 222.104 245.834 222.904V227.464C245.834 227.656 245.887 227.8 245.994 227.896C246.101 227.981 246.234 228.024 246.394 228.024H247.034V228.936C246.757 229.064 246.394 229.128 245.946 229.128C245.583 229.128 245.279 229.021 245.034 228.808C244.789 228.584 244.623 228.291 244.538 227.928H244.426C244.138 228.323 243.743 228.632 243.242 228.856C242.751 229.08 242.207 229.192 241.61 229.192ZM241.978 228.024C242.394 228.024 242.789 227.939 243.162 227.768C243.535 227.597 243.839 227.347 244.074 227.016C244.309 226.675 244.426 226.264 244.426 225.784V225.176C243.05 225.176 242.015 225.288 241.322 225.512C240.639 225.725 240.298 226.136 240.298 226.744C240.298 227.203 240.437 227.533 240.714 227.736C241.002 227.928 241.423 228.024 241.978 228.024ZM250.117 229.176C249.541 229.176 249.119 229.005 248.853 228.664C248.586 228.323 248.453 227.901 248.453 227.4V221.752H247.429V220.584H248.469L248.773 218.248H249.861V220.584H251.285V221.752H249.861V227.272C249.861 227.773 250.095 228.024 250.565 228.024H251.285V228.952C251.146 229.016 250.965 229.069 250.741 229.112C250.517 229.155 250.309 229.176 250.117 229.176ZM256.234 229.192C254.879 229.192 253.871 228.835 253.21 228.12C252.548 227.405 252.218 226.296 252.218 224.792C252.218 223.288 252.548 222.179 253.21 221.464C253.871 220.749 254.879 220.392 256.234 220.392C257.45 220.392 258.356 220.717 258.954 221.368C259.562 222.008 259.866 223.043 259.866 224.472V225.176H253.674C253.727 226.147 253.956 226.867 254.362 227.336C254.778 227.795 255.402 228.024 256.234 228.024C256.906 228.024 257.45 227.869 257.866 227.56C258.282 227.251 258.49 226.776 258.49 226.136H259.866C259.866 227.117 259.524 227.875 258.842 228.408C258.17 228.931 257.3 229.192 256.234 229.192ZM258.394 224.008C258.394 222.376 257.674 221.56 256.234 221.56C255.434 221.56 254.831 221.752 254.426 222.136C254.031 222.52 253.791 223.144 253.706 224.008H258.394ZM256.906 217.432H258.442L258.458 217.48L256.73 219.544H255.53L256.906 217.432ZM261.556 220.584H262.628L262.788 221.848H262.884C263.044 221.432 263.284 221.085 263.604 220.808C263.924 220.531 264.346 220.392 264.868 220.392C265.156 220.392 265.407 220.435 265.62 220.52V221.88H265.028C264.431 221.88 263.935 222.056 263.54 222.408C263.156 222.749 262.964 223.288 262.964 224.024V229H261.556V220.584ZM266.885 217.432H268.277V218.952H266.885V217.432ZM266.885 220.584H268.293V229H266.885V220.584ZM272.719 229.192C271.994 229.192 271.349 229.021 270.783 228.68C270.218 228.339 269.935 227.72 269.935 226.824C269.935 225.747 270.415 225.011 271.375 224.616C272.335 224.211 273.722 224.008 275.535 224.008V223.08C275.535 222.589 275.397 222.216 275.119 221.96C274.842 221.693 274.341 221.56 273.615 221.56C272.933 221.56 272.442 221.688 272.143 221.944C271.855 222.2 271.711 222.515 271.711 222.888V223.08H270.351C270.341 223.016 270.335 222.899 270.335 222.728C270.335 221.981 270.645 221.405 271.263 221C271.882 220.595 272.709 220.392 273.743 220.392C274.789 220.392 275.583 220.611 276.127 221.048C276.671 221.485 276.943 222.104 276.943 222.904V227.464C276.943 227.656 276.997 227.8 277.103 227.896C277.21 227.981 277.343 228.024 277.503 228.024H278.143V228.936C277.866 229.064 277.503 229.128 277.055 229.128C276.693 229.128 276.389 229.021 276.143 228.808C275.898 228.584 275.733 228.291 275.647 227.928H275.535C275.247 228.323 274.853 228.632 274.351 228.856C273.861 229.08 273.317 229.192 272.719 229.192ZM273.087 228.024C273.503 228.024 273.898 227.939 274.271 227.768C274.645 227.597 274.949 227.347 275.183 227.016C275.418 226.675 275.535 226.264 275.535 225.784V225.176C274.159 225.176 273.125 225.288 272.431 225.512C271.749 225.725 271.407 226.136 271.407 226.744C271.407 227.203 271.546 227.533 271.823 227.736C272.111 227.928 272.533 228.024 273.087 228.024Z" fill="#D4C2FF"/>
<path d="M326 225L322 221L318 225" stroke="#A380F6" stroke-width="1.5" stroke-linecap="round" stroke-linejoin="round"/>
<path d="M46.5 224.5L51.707 219.293C51.895 219.105 52 218.851 52 218.586V216C52 215.448 51.552 215 51 215H37C36.448 215 36 215.448 36 216V218.586C36 218.851 36.105 219.106 36.293 219.293L41.5 224.5" stroke="#04D361" stroke-width="2" stroke-linecap="round" stroke-linejoin="round"/>
<path d="M41.5 224.5V230.749C41.5 231.562 42.264 232.159 43.053 231.962L45.553 231.337C46.109 231.198 46.5 230.698 46.5 230.124V224.5" stroke="#04D361" stroke-width="2" stroke-linecap="round" stroke-linejoin="round"/>
<line opacity="0.5" x1="32" y1="250.5" x2="342" y2="250.5" stroke="#9871F5"/>
<path d="M33.608 127.536H41.456C43.296 127.536 44.68 128.008 45.608 128.952C46.536 129.88 47 131.2 47 132.912C47 134.624 46.512 135.96 45.536 136.92C44.576 137.864 43.136 138.336 41.216 138.336H37.088V144H33.608V127.536ZM41.144 135.384C41.896 135.384 42.472 135.168 42.872 134.736C43.272 134.304 43.472 133.696 43.472 132.912C43.472 132.144 43.272 131.552 42.872 131.136C42.472 130.704 41.896 130.488 41.144 130.488H37.088V135.384H41.144ZM49.7118 131.376H52.5198L52.7838 133.416H52.9518C53.2238 132.696 53.5758 132.128 54.0078 131.712C54.4398 131.296 55.0078 131.088 55.7118 131.088C56.1758 131.088 56.5918 131.16 56.9598 131.304V134.376H56.0478C54.9758 134.376 54.1998 134.672 53.7198 135.264C53.2398 135.84 52.9998 136.72 52.9998 137.904V144H49.7118V131.376ZM64.6559 144.288C62.4959 144.288 60.8879 143.752 59.8319 142.68C58.7759 141.608 58.2479 139.944 58.2479 137.688C58.2479 135.432 58.7759 133.768 59.8319 132.696C60.8879 131.624 62.4959 131.088 64.6559 131.088C66.8159 131.088 68.4239 131.624 69.4799 132.696C70.5519 133.768 71.0879 135.432 71.0879 137.688C71.0879 139.944 70.5519 141.608 69.4799 142.68C68.4239 143.752 66.8159 144.288 64.6559 144.288ZM64.6559 141.6C65.7279 141.6 66.5039 141.296 66.9839 140.688C67.4639 140.064 67.7039 139.128 67.7039 137.88V137.496C67.7039 136.248 67.4639 135.32 66.9839 134.712C66.5039 134.088 65.7279 133.776 64.6559 133.776C63.5839 133.776 62.8079 134.088 62.3279 134.712C61.8639 135.32 61.6319 136.248 61.6319 137.496V137.88C61.6319 139.128 61.8639 140.064 62.3279 140.688C62.8079 141.296 63.5839 141.6 64.6559 141.6ZM74.0238 134.064H72.2238V131.376H74.0238V129.936C74.0238 128.944 74.2878 128.12 74.8158 127.464C75.3438 126.792 76.2158 126.456 77.4318 126.456C77.7678 126.456 78.1358 126.496 78.5358 126.576C78.9358 126.656 79.2718 126.744 79.5438 126.84V129.144H78.3438C77.6558 129.144 77.3118 129.488 77.3118 130.176V131.376H81.5358V129.936C81.5358 128.944 81.7998 128.12 82.3278 127.464C82.8558 126.792 83.7278 126.456 84.9438 126.456C85.2798 126.456 85.6478 126.496 86.0478 126.576C86.4478 126.656 86.7838 126.744 87.0558 126.84V129.144H85.8558C85.1678 129.144 84.8238 129.488 84.8238 130.176V131.376H87.0558V134.064H84.8238V144H81.5358V134.064H77.3118V144H74.0238V134.064ZM91.1474 148.368C90.2674 148.368 89.5154 148.264 88.8914 148.056V145.752H90.4514C91.0114 145.752 91.4674 145.616 91.8194 145.344C92.1714 145.072 92.4594 144.624 92.6834 144L87.7394 131.376H91.1714L93.5474 137.304C93.7874 137.928 94.0834 139.024 94.4354 140.592H94.5554C94.9394 139.12 95.2354 138.032 95.4434 137.328L97.3154 131.376H100.651L96.4034 143.352C96.0194 144.408 95.6194 145.288 95.2034 145.992C94.7874 146.712 94.2434 147.288 93.5714 147.72C92.9154 148.152 92.1074 148.368 91.1474 148.368ZM107.603 144.288C105.843 144.288 104.459 143.928 103.451 143.208C102.459 142.472 101.963 141.496 101.963 140.28L101.987 139.992H105.179V140.16C105.195 140.72 105.443 141.128 105.923 141.384C106.419 141.624 107.019 141.744 107.723 141.744C108.379 141.744 108.939 141.656 109.403 141.48C109.867 141.304 110.099 141.016 110.099 140.616C110.099 140.168 109.859 139.832 109.379 139.608C108.915 139.384 108.179 139.16 107.171 138.936C106.131 138.696 105.283 138.456 104.627 138.216C103.971 137.96 103.403 137.568 102.923 137.04C102.443 136.512 102.203 135.808 102.203 134.928C102.203 133.696 102.715 132.752 103.739 132.096C104.779 131.424 106.115 131.088 107.747 131.088C109.267 131.088 110.523 131.4 111.515 132.024C112.507 132.632 113.003 133.464 113.003 134.52L112.979 135.072H109.787V134.928C109.787 134.512 109.587 134.192 109.187 133.968C108.803 133.744 108.283 133.632 107.627 133.632C106.971 133.632 106.451 133.72 106.067 133.896C105.683 134.072 105.491 134.32 105.491 134.64C105.491 135.04 105.707 135.336 106.139 135.528C106.587 135.72 107.299 135.912 108.275 136.104C109.347 136.344 110.219 136.584 110.891 136.824C111.563 137.064 112.147 137.456 112.643 138C113.139 138.544 113.387 139.28 113.387 140.208C113.387 142.928 111.459 144.288 107.603 144.288ZM33.608 156.536H40.424C42.936 156.536 44.872 157.224 46.232 158.6C47.608 159.96 48.296 162.016 48.296 164.768C48.296 167.52 47.608 169.584 46.232 170.96C44.872 172.32 42.936 173 40.424 173H33.608V156.536ZM40.424 170.048C41.832 170.048 42.896 169.624 43.616 168.776C44.352 167.912 44.72 166.696 44.72 165.128V164.408C44.72 162.84 44.352 161.632 43.616 160.784C42.896 159.92 41.832 159.488 40.424 159.488H37.088V170.048H40.424ZM51.0003 155.648H54.2883V158.768H51.0003V155.648ZM51.0003 160.376H54.2883V173H51.0003V160.376ZM62.744 173.288C60.984 173.288 59.6 172.928 58.592 172.208C57.6 171.472 57.104 170.496 57.104 169.28L57.128 168.992H60.32V169.16C60.336 169.72 60.584 170.128 61.064 170.384C61.56 170.624 62.16 170.744 62.864 170.744C63.52 170.744 64.08 170.656 64.544 170.48C65.008 170.304 65.24 170.016 65.24 169.616C65.24 169.168 65 168.832 64.52 168.608C64.056 168.384 63.32 168.16 62.312 167.936C61.272 167.696 60.424 167.456 59.768 167.216C59.112 166.96 58.544 166.568 58.064 166.04C57.584 165.512 57.344 164.808 57.344 163.928C57.344 162.696 57.856 161.752 58.88 161.096C59.92 160.424 61.256 160.088 62.888 160.088C64.408 160.088 65.664 160.4 66.656 161.024C67.648 161.632 68.144 162.464 68.144 163.52L68.12 164.072H64.928V163.928C64.928 163.512 64.728 163.192 64.328 162.968C63.944 162.744 63.424 162.632 62.768 162.632C62.112 162.632 61.592 162.72 61.208 162.896C60.824 163.072 60.632 163.32 60.632 163.64C60.632 164.04 60.848 164.336 61.28 164.528C61.728 164.72 62.44 164.912 63.416 165.104C64.488 165.344 65.36 165.584 66.032 165.824C66.704 166.064 67.288 166.456 67.784 167C68.28 167.544 68.528 168.28 68.528 169.208C68.528 171.928 66.6 173.288 62.744 173.288ZM71.0399 160.376H73.8479L74.0639 162.032H74.2319C74.6319 161.392 75.1679 160.912 75.8399 160.592C76.5119 160.256 77.2559 160.088 78.0719 160.088C79.6719 160.088 80.9119 160.64 81.7919 161.744C82.6719 162.832 83.1119 164.488 83.1119 166.712C83.1119 168.888 82.6639 170.528 81.7679 171.632C80.8879 172.736 79.7119 173.288 78.2399 173.288C77.3919 173.288 76.6399 173.136 75.9839 172.832C75.3439 172.528 74.8399 172.096 74.4719 171.536H74.3279V177.152H71.0399V160.376ZM77.0159 170.432C77.9919 170.432 78.6879 170.144 79.1039 169.568C79.5199 168.976 79.7279 168.088 79.7279 166.904V166.472C79.7279 165.288 79.5199 164.408 79.1039 163.832C78.6879 163.24 77.9919 162.944 77.0159 162.944C75.2239 162.944 74.3279 164.12 74.3279 166.472V166.856C74.3279 169.24 75.2239 170.432 77.0159 170.432ZM91.3278 173.288C89.1678 173.288 87.5598 172.752 86.5038 171.68C85.4478 170.608 84.9198 168.944 84.9198 166.688C84.9198 164.432 85.4478 162.768 86.5038 161.696C87.5598 160.624 89.1678 160.088 91.3278 160.088C93.4878 160.088 95.0958 160.624 96.1518 161.696C97.2238 162.768 97.7598 164.432 97.7598 166.688C97.7598 168.944 97.2238 170.608 96.1518 171.68C95.0958 172.752 93.4878 173.288 91.3278 173.288ZM91.3278 170.6C92.3998 170.6 93.1758 170.296 93.6558 169.688C94.1358 169.064 94.3758 168.128 94.3758 166.88V166.496C94.3758 165.248 94.1358 164.32 93.6558 163.712C93.1758 163.088 92.3998 162.776 91.3278 162.776C90.2558 162.776 89.4798 163.088 88.9998 163.712C88.5358 164.32 88.3038 165.248 88.3038 166.496V166.88C88.3038 168.128 88.5358 169.064 88.9998 169.688C89.4798 170.296 90.2558 170.6 91.3278 170.6ZM100.384 160.376H103.192L103.432 162.032H103.6C104.624 160.736 105.936 160.088 107.536 160.088C108.832 160.088 109.848 160.44 110.584 161.144C111.336 161.848 111.712 162.976 111.712 164.528V173H108.424V165.224C108.424 164.44 108.24 163.872 107.872 163.52C107.504 163.168 106.96 162.992 106.24 162.992C105.504 162.992 104.888 163.256 104.392 163.784C103.912 164.296 103.672 164.936 103.672 165.704V173H100.384V160.376ZM115.032 160.376H118.32V173H115.032V160.376ZM117.336 155.648H120.528L120.552 155.72L117.96 158.816H115.44L117.336 155.648ZM120.247 160.376H123.679L125.647 165.8C125.871 166.408 126.223 167.672 126.703 169.592H126.823C127.271 167.784 127.623 166.52 127.879 165.8L129.823 160.376H133.159L128.431 173H124.951L120.247 160.376ZM140.279 173.288C138.247 173.288 136.727 172.752 135.719 171.68C134.727 170.608 134.231 168.944 134.231 166.688C134.231 164.432 134.727 162.768 135.719 161.696C136.727 160.624 138.247 160.088 140.279 160.088C142.151 160.088 143.551 160.632 144.479 161.72C145.407 162.792 145.871 164.448 145.871 166.688V167.456H137.567C137.599 168.576 137.823 169.408 138.239 169.952C138.655 170.48 139.351 170.744 140.327 170.744C141.015 170.744 141.567 170.552 141.983 170.168C142.415 169.784 142.631 169.24 142.631 168.536H145.871C145.871 170.12 145.359 171.312 144.335 172.112C143.311 172.896 141.959 173.288 140.279 173.288ZM142.463 165.272C142.463 163.528 141.735 162.656 140.279 162.656C139.447 162.656 138.815 162.872 138.383 163.304C137.967 163.736 137.711 164.392 137.615 165.272H142.463ZM148.383 155.648H151.671V158.768H148.383V155.648ZM148.383 160.376H151.671V173H148.383V160.376ZM160.127 173.288C158.367 173.288 156.983 172.928 155.975 172.208C154.983 171.472 154.487 170.496 154.487 169.28L154.511 168.992H157.703V169.16C157.719 169.72 157.967 170.128 158.447 170.384C158.943 170.624 159.543 170.744 160.247 170.744C160.903 170.744 161.463 170.656 161.927 170.48C162.391 170.304 162.623 170.016 162.623 169.616C162.623 169.168 162.383 168.832 161.903 168.608C161.439 168.384 160.703 168.16 159.695 167.936C158.655 167.696 157.807 167.456 157.151 167.216C156.495 166.96 155.927 166.568 155.447 166.04C154.967 165.512 154.727 164.808 154.727 163.928C154.727 162.696 155.239 161.752 156.263 161.096C157.303 160.424 158.639 160.088 160.271 160.088C161.791 160.088 163.047 160.4 164.039 161.024C165.031 161.632 165.527 162.464 165.527 163.52L165.503 164.072H162.311V163.928C162.311 163.512 162.111 163.192 161.711 162.968C161.327 162.744 160.807 162.632 160.151 162.632C159.495 162.632 158.975 162.72 158.591 162.896C158.207 163.072 158.015 163.32 158.015 163.64C158.015 164.04 158.231 164.336 158.663 164.528C159.111 164.72 159.823 164.912 160.799 165.104C161.871 165.344 162.743 165.584 163.415 165.824C164.087 166.064 164.671 166.456 165.167 167C165.663 167.544 165.911 168.28 165.911 169.208C165.911 171.928 163.983 173.288 160.127 173.288Z" fill="white"/>
<g clip-path="url(#clip0)">
<g clip-path="url(#clip1)">
<path d="M316.365 70.4734H312.534C311.514 70.4734 311 71.0648 311 72.2362V78.5055C311 78.6591 311.069 78.7536 311.218 78.7536H312.376C312.514 78.7536 312.603 78.6591 312.603 78.5055V78.2675C312.603 77.6868 312.808 77.3703 313.317 77.3093H316.365C317.483 77.3093 317.988 76.73 317.988 75.464V72.3186C317.988 71.0527 317.483 70.4734 316.365 70.4734ZM316.386 74.9317C316.386 75.6183 316.256 75.7597 315.573 75.7597H313.949C313.267 75.7597 312.831 76.032 312.603 76.5644V72.6975C312.603 72.1651 312.712 72.023 313.256 72.023H315.573C316.256 72.023 316.386 72.1651 316.386 72.851V74.9317Z" fill="white"/>
<path d="M321.66 73.9393C320.779 73.9393 320.403 74.4717 320.403 75.3709V78.529C320.403 78.6712 320.343 78.7536 320.204 78.7536H319.155C319.017 78.7536 318.948 78.6712 318.948 78.529V72.7565C318.948 72.6144 319.017 72.5312 319.155 72.5312H320.036C320.165 72.5312 320.234 72.6144 320.234 72.7565V73.6879C320.403 72.9195 320.888 72.5286 321.749 72.5286H322.105C322.234 72.5286 322.303 72.6117 322.303 72.7539V73.7147C322.303 73.8683 322.234 73.9393 322.105 73.9393H321.66Z" fill="white"/>
<path d="M328.489 77.0619C328.489 78.2333 328.054 78.7536 327.015 78.7536H324.441C323.412 78.7536 322.966 78.2333 322.966 77.0619V74.2243C322.966 73.0536 323.412 72.5326 324.441 72.5326H327.015C328.054 72.5326 328.489 73.0536 328.489 74.2243V77.0619ZM327.034 74.6729C327.034 74.0573 326.935 73.9393 326.322 73.9393H325.143C324.52 73.9393 324.421 74.0573 324.421 74.6729V76.6127C324.421 77.2275 324.52 77.3462 325.143 77.3462H326.322C326.935 77.3462 327.034 77.2275 327.034 76.6127V74.6729Z" fill="white"/>
<path d="M329.954 73.9393H329.458C329.329 73.9393 329.26 73.8682 329.26 73.7147V72.7565C329.26 72.6143 329.329 72.5312 329.458 72.5312H329.953V71.7628C329.954 70.5914 330.468 70 331.488 70H332.705C332.844 70 332.903 70.0831 332.903 70.2246V71.1828C332.903 71.337 332.844 71.4074 332.705 71.4074H332.062C331.517 71.4074 331.408 71.5496 331.408 72.082V72.5312H332.705C332.844 72.5312 332.903 72.6143 332.903 72.7565V73.7147C332.903 73.8682 332.844 73.9393 332.705 73.9393H331.408V78.529C331.408 78.6711 331.339 78.7536 331.201 78.7536H330.152C330.013 78.7536 329.954 78.6711 329.954 78.529V73.9393Z" fill="white"/>
<path d="M333.992 73.9393H333.498C333.369 73.9393 333.3 73.8682 333.3 73.7147V72.7565C333.3 72.6143 333.369 72.5312 333.498 72.5312H333.993V71.7628C333.992 70.5914 334.508 70 335.526 70H336.743C336.882 70 336.941 70.0831 336.941 70.2246V71.1828C336.941 71.337 336.882 71.4074 336.743 71.4074H336.1C335.556 71.4074 335.447 71.5496 335.447 72.082V72.5312H336.743C336.882 72.5312 336.941 72.6143 336.941 72.7565V73.7147C336.941 73.8682 336.882 73.9393 336.743 73.9393H335.447V78.529C335.447 78.6711 335.377 78.7536 335.239 78.7536H334.19C334.051 78.7536 333.992 78.6711 333.992 78.529V73.9393Z" fill="white"/>
<path d="M341.365 81.1668H339.208C338.238 81.1668 337.822 80.7176 337.822 79.6052V79.4872C337.819 79.4554 337.823 79.4233 337.832 79.3932C337.84 79.3631 337.855 79.3358 337.874 79.3133C337.893 79.2909 337.916 79.2738 337.941 79.2634C337.966 79.2529 337.993 79.2495 338.02 79.2532H339.03C339.168 79.2532 339.237 79.3363 339.237 79.4899V79.5489C339.237 79.7856 339.347 79.8801 339.564 79.8801H340.812C341.405 79.8801 341.554 79.7031 341.554 79.0996V77.2336C341.326 77.766 340.891 78.0382 340.207 78.0382H339.197C338.168 78.0382 337.712 77.5179 337.712 76.3465V72.7565C337.711 72.7255 337.715 72.6946 337.725 72.6657C337.735 72.6369 337.749 72.6109 337.768 72.5895C337.787 72.5681 337.809 72.5518 337.834 72.5417C337.859 72.5317 337.885 72.5281 337.91 72.5313H338.97C339.098 72.5313 339.168 72.6144 339.168 72.7565V75.9006C339.168 76.5155 339.277 76.6341 339.89 76.6341H340.643C341.296 76.6341 341.553 76.3143 341.553 75.6639V72.7565C341.553 72.6144 341.622 72.5313 341.751 72.5313H342.811C342.837 72.5283 342.862 72.5322 342.886 72.5425C342.91 72.5527 342.932 72.5693 342.95 72.5908C342.968 72.6124 342.981 72.6384 342.99 72.667C342.999 72.6957 343.002 72.7263 342.999 72.7565V79.286C342.999 80.5272 342.444 81.1668 341.365 81.1668Z" fill="white"/>
</g>
</g>
<g clip-path="url(#clip2)">
<path d="M33 76H49" stroke="#D4C2FF" stroke-width="1.5" stroke-linecap="round" stroke-linejoin="round"/>
<path d="M38.001 81.001L33 76L38.001 70.999" stroke="#D4C2FF" stroke-width="1.5" stroke-linecap="round" stroke-linejoin="round"/>
</g>
<defs>
<clipPath id="clip0">
<rect width="32" height="11.2" fill="white" transform="translate(311 70)"/>
</clipPath>
<clipPath id="clip1">
<rect width="32" height="11.1912" fill="white" transform="translate(311 70)"/>
</clipPath>
<clipPath id="clip2">
<rect width="32" height="18" fill="white" transform="translate(50 60) rotate(90)"/>
</clipPath>
</defs>
</svg>
