<svg width="375" height="812" viewBox="0 0 375 812" fill="none" xmlns="http://www.w3.org/2000/svg">
<rect width="375" height="812" fill="#F0F0F7"/>
<rect width="375" height="350" fill="#04D361"/>
<path d="M57.928 530.624C57.928 525.632 54.16 522.104 49.408 522.104C44.704 522.104 40.888 525.632 40.888 530.624C40.888 535.64 44.704 539.168 49.408 539.168C54.16 539.168 57.928 535.64 57.928 530.624ZM43.696 530.624C43.696 526.856 46.096 524.504 49.408 524.504C52.72 524.504 55.12 526.856 55.12 530.624C55.12 534.392 52.72 536.792 49.408 536.792C46.096 536.792 43.696 534.392 43.696 530.624ZM72.5963 525.776H69.8603V533.144C69.8603 535.568 68.5403 536.816 66.5243 536.816C64.5323 536.816 63.2123 535.568 63.2123 533.144V525.776H60.5003V533.552C60.5003 537.248 62.8523 539.192 65.9483 539.192C67.5083 539.192 68.9963 538.544 69.8603 537.416V539H72.5963V525.776ZM81.5286 532.328C81.5286 536.408 84.2886 539.216 87.7686 539.216C89.9286 539.216 91.5126 538.208 92.3526 537.008V539H95.1126V521.24H92.3526V527.624C91.3446 526.376 89.5206 525.56 87.7926 525.56C84.2886 525.56 81.5286 528.248 81.5286 532.328ZM92.3526 532.376C92.3526 535.232 90.4086 536.84 88.3446 536.84C86.3046 536.84 84.3366 535.184 84.3366 532.328C84.3366 529.472 86.3046 527.936 88.3446 527.936C90.4086 527.936 92.3526 529.544 92.3526 532.376ZM104.274 527.864C106.314 527.864 107.922 529.16 107.97 531.2H100.65C100.938 529.112 102.426 527.864 104.274 527.864ZM110.466 535.064H107.514C107.01 536.096 106.074 536.912 104.394 536.912C102.378 536.912 100.818 535.592 100.626 533.408H110.73C110.802 532.952 110.826 532.52 110.826 532.064C110.826 528.176 108.162 525.56 104.394 525.56C100.482 525.56 97.7943 528.224 97.7943 532.376C97.7943 536.528 100.602 539.216 104.394 539.216C107.634 539.216 109.722 537.368 110.466 535.064ZM107.754 522.704L104.322 520.712L100.89 522.704V524.84L104.322 522.776L107.754 524.84V522.704ZM118.841 532.328C118.841 536.408 121.601 539.216 125.033 539.216C127.241 539.216 128.825 538.16 129.665 537.032V539H132.425V525.776H129.665V527.696C128.849 526.616 127.313 525.56 125.081 525.56C121.601 525.56 118.841 528.248 118.841 532.328ZM129.665 532.376C129.665 535.232 127.721 536.84 125.657 536.84C123.617 536.84 121.649 535.184 121.649 532.328C121.649 529.472 123.617 527.936 125.657 527.936C127.721 527.936 129.665 529.544 129.665 532.376ZM147.995 525.776H145.259V533.144C145.259 535.568 143.939 536.816 141.923 536.816C139.931 536.816 138.611 535.568 138.611 533.144V525.776H135.899V533.552C135.899 537.248 138.251 539.192 141.347 539.192C142.907 539.192 144.395 538.544 145.259 537.416V539H147.995V525.776ZM151.605 539H154.341V521.24H151.605V539ZM157.021 532.328C157.021 536.408 159.781 539.216 163.213 539.216C165.421 539.216 167.005 538.16 167.845 537.032V539H170.605V525.776H167.845V527.696C167.029 526.616 165.493 525.56 163.261 525.56C159.781 525.56 157.021 528.248 157.021 532.328ZM167.845 532.376C167.845 535.232 165.901 536.84 163.837 536.84C161.797 536.84 159.829 535.184 159.829 532.328C159.829 529.472 161.797 527.936 163.837 527.936C165.901 527.936 167.845 529.544 167.845 532.376ZM184.062 535.304C183.918 530.528 176.454 532.016 176.454 529.352C176.454 528.464 177.222 527.864 178.686 527.864C180.174 527.864 181.062 528.656 181.158 529.808H183.894C183.75 527.168 181.782 525.56 178.782 525.56C175.662 525.56 173.694 527.264 173.694 529.376C173.694 534.224 181.374 532.736 181.374 535.328C181.374 536.24 180.534 536.912 178.95 536.912C177.438 536.912 176.406 536.024 176.31 534.944H173.478C173.598 537.344 175.83 539.216 178.998 539.216C182.118 539.216 184.062 537.536 184.062 535.304ZM51.664 569.304C51.52 564.528 44.056 566.016 44.056 563.352C44.056 562.464 44.824 561.864 46.288 561.864C47.776 561.864 48.664 562.656 48.76 563.808H51.496C51.352 561.168 49.384 559.56 46.384 559.56C43.264 559.56 41.296 561.264 41.296 563.376C41.296 568.224 48.976 566.736 48.976 569.328C48.976 570.24 48.136 570.912 46.552 570.912C45.04 570.912 44.008 570.024 43.912 568.944H41.08C41.2 571.344 43.432 573.216 46.6 573.216C49.72 573.216 51.664 571.536 51.664 569.304ZM67.2203 566.376C67.2203 562.224 64.2443 559.56 60.4763 559.56C56.7083 559.56 53.7323 562.224 53.7323 566.376C53.7323 570.528 56.5883 573.216 60.3563 573.216C64.1483 573.216 67.2203 570.528 67.2203 566.376ZM56.5163 566.376C56.5163 563.376 58.3643 561.936 60.4283 561.936C62.4683 561.936 64.4123 563.376 64.4123 566.376C64.4123 569.376 62.3963 570.84 60.3563 570.84C58.2923 570.84 56.5163 569.376 56.5163 566.376ZM72.661 561.744V555.24H69.925V573H72.661V571.08C73.525 572.232 75.085 573.216 77.269 573.216C80.749 573.216 83.485 570.408 83.485 566.328C83.485 562.248 80.773 559.56 77.269 559.56C75.181 559.56 73.525 560.544 72.661 561.744ZM80.701 566.328C80.701 569.184 78.733 570.84 76.669 570.84C74.629 570.84 72.661 569.232 72.661 566.376C72.661 563.544 74.629 561.936 76.669 561.936C78.733 561.936 80.701 563.472 80.701 566.328ZM88.9266 566.04C88.9266 563.232 90.1746 562.392 92.1906 562.392H92.8866V559.56C91.0146 559.56 89.6946 560.376 88.9266 561.696V559.776H86.1906V573H88.9266V566.04ZM100.97 561.864C103.01 561.864 104.618 563.16 104.666 565.2H97.3456C97.6336 563.112 99.1216 561.864 100.97 561.864ZM107.162 569.064H104.21C103.706 570.096 102.77 570.912 101.09 570.912C99.0736 570.912 97.5136 569.592 97.3216 567.408H107.426C107.498 566.952 107.522 566.52 107.522 566.064C107.522 562.176 104.858 559.56 101.09 559.56C97.1776 559.56 94.4896 562.224 94.4896 566.376C94.4896 570.528 97.2976 573.216 101.09 573.216C104.33 573.216 106.418 571.368 107.162 569.064ZM129.048 566.376C129.048 562.224 126.072 559.56 122.304 559.56C118.536 559.56 115.56 562.224 115.56 566.376C115.56 570.528 118.416 573.216 122.184 573.216C125.976 573.216 129.048 570.528 129.048 566.376ZM118.344 566.376C118.344 563.376 120.192 561.936 122.256 561.936C124.296 561.936 126.24 563.376 126.24 566.376C126.24 569.376 124.224 570.84 122.184 570.84C120.12 570.84 118.344 569.376 118.344 566.376ZM137.076 566.328C137.076 570.408 139.836 573.216 143.243 573.216C145.476 573.216 147.132 572.112 147.9 571.08V579.288H150.66V559.776H147.9V561.696C147.132 560.616 145.524 559.56 143.34 559.56C139.836 559.56 137.076 562.248 137.076 566.328ZM147.9 566.376C147.9 569.232 145.956 570.84 143.892 570.84C141.852 570.84 139.884 569.184 139.884 566.328C139.884 563.472 141.852 561.936 143.892 561.936C145.956 561.936 147.9 563.544 147.9 566.376ZM166.229 559.776H163.493V567.144C163.493 569.568 162.173 570.816 160.157 570.816C158.165 570.816 156.845 569.568 156.845 567.144V559.776H154.133V567.552C154.133 571.248 156.485 573.192 159.581 573.192C161.141 573.192 162.629 572.544 163.493 571.416V573H166.229V559.776ZM175.407 561.864C177.447 561.864 179.055 563.16 179.103 565.2H171.783C172.071 563.112 173.559 561.864 175.407 561.864ZM181.599 569.064H178.647C178.143 570.096 177.207 570.912 175.527 570.912C173.511 570.912 171.951 569.592 171.759 567.408H181.863C181.935 566.952 181.959 566.52 181.959 566.064C181.959 562.176 179.295 559.56 175.527 559.56C171.615 559.56 168.927 562.224 168.927 566.376C168.927 570.528 171.735 573.216 175.527 573.216C178.767 573.216 180.855 571.368 181.599 569.064ZM189.326 559.776L194.342 573H197.606L202.646 559.776H199.742L195.998 570.552L192.254 559.776H189.326ZM217.314 566.376C217.314 562.224 214.338 559.56 210.57 559.56C206.802 559.56 203.826 562.224 203.826 566.376C203.826 570.528 206.682 573.216 210.45 573.216C214.242 573.216 217.314 570.528 217.314 566.376ZM206.61 566.376C206.61 563.376 208.458 561.936 210.522 561.936C212.562 561.936 214.506 563.376 214.506 566.376C214.506 569.376 212.49 570.84 210.45 570.84C208.386 570.84 206.61 569.376 206.61 566.376ZM219.107 566.376C219.107 570.528 221.795 573.216 225.587 573.216C228.827 573.216 230.939 571.416 231.683 568.824H228.731C228.227 570.192 227.219 570.912 225.587 570.912C223.379 570.912 221.915 569.28 221.915 566.376C221.915 563.496 223.379 561.864 225.587 561.864C227.219 561.864 228.275 562.68 228.731 563.952H231.683C230.939 561.168 228.827 559.56 225.587 559.56C221.795 559.56 219.107 562.248 219.107 566.376ZM239.977 561.864C242.017 561.864 243.625 563.16 243.673 565.2H236.353C236.641 563.112 238.129 561.864 239.977 561.864ZM246.169 569.064H243.217C242.713 570.096 241.777 570.912 240.097 570.912C238.081 570.912 236.521 569.592 236.329 567.408H246.433C246.505 566.952 246.529 566.52 246.529 566.064C246.529 562.176 243.865 559.56 240.097 559.56C236.185 559.56 233.497 562.224 233.497 566.376C233.497 570.528 236.305 573.216 240.097 573.216C243.337 573.216 245.425 571.368 246.169 569.064ZM243.457 556.704L240.025 554.712L236.593 556.704V558.84L240.025 556.776L243.457 558.84V556.704ZM60.544 607H63.256V599.2C63.256 595.504 60.904 593.56 57.808 593.56C55.888 593.56 54.016 594.568 53.2 596.176C52.288 594.448 50.536 593.56 48.448 593.56C46.864 593.56 45.424 594.208 44.536 595.288V593.776H41.8V607H44.536V599.608C44.536 597.184 45.856 595.936 47.872 595.936C49.864 595.936 51.184 597.184 51.184 599.608V607H53.896V599.608C53.896 597.184 55.216 595.936 57.232 595.936C59.224 595.936 60.544 597.184 60.544 599.608V607ZM65.8255 600.328C65.8255 604.408 68.5855 607.216 72.0175 607.216C74.2255 607.216 75.8095 606.16 76.6495 605.032V607H79.4095V593.776H76.6495V595.696C75.8335 594.616 74.2975 593.56 72.0655 593.56C68.5855 593.56 65.8255 596.248 65.8255 600.328ZM76.6495 600.376C76.6495 603.232 74.7055 604.84 72.6415 604.84C70.6015 604.84 68.6335 603.184 68.6335 600.328C68.6335 597.472 70.6015 595.936 72.6415 595.936C74.7055 595.936 76.6495 597.544 76.6495 600.376ZM83.0031 607H85.7391V593.776H83.0031V607ZM84.3951 592.024C85.3551 592.024 86.1231 591.256 86.1231 590.272C86.1231 589.288 85.3551 588.52 84.3951 588.52C83.4111 588.52 82.6431 589.288 82.6431 590.272C82.6431 591.256 83.4111 592.024 84.3951 592.024ZM99.1953 603.304C99.0513 598.528 91.5873 600.016 91.5873 597.352C91.5873 596.464 92.3553 595.864 93.8193 595.864C95.3073 595.864 96.1953 596.656 96.2913 597.808H99.0273C98.8833 595.168 96.9153 593.56 93.9153 593.56C90.7953 593.56 88.8273 595.264 88.8273 597.376C88.8273 602.224 96.5073 600.736 96.5073 603.328C96.5073 604.24 95.6673 604.912 94.0833 604.912C92.5713 604.912 91.5393 604.024 91.4433 602.944H88.6113C88.7313 605.344 90.9633 607.216 94.1313 607.216C97.2513 607.216 99.1953 605.536 99.1953 603.304ZM107.474 600.376C107.474 604.528 110.162 607.216 113.954 607.216C117.194 607.216 119.306 605.416 120.05 602.824H117.098C116.594 604.192 115.586 604.912 113.954 604.912C111.746 604.912 110.282 603.28 110.282 600.376C110.282 597.496 111.746 595.864 113.954 595.864C115.586 595.864 116.642 596.68 117.098 597.952H120.05C119.306 595.168 117.194 593.56 113.954 593.56C110.162 593.56 107.474 596.248 107.474 600.376ZM135.377 600.376C135.377 596.224 132.401 593.56 128.633 593.56C124.865 593.56 121.889 596.224 121.889 600.376C121.889 604.528 124.745 607.216 128.513 607.216C132.305 607.216 135.377 604.528 135.377 600.376ZM124.673 600.376C124.673 597.376 126.521 595.936 128.585 595.936C130.625 595.936 132.569 597.376 132.569 600.376C132.569 603.376 130.553 604.84 128.513 604.84C126.449 604.84 124.673 603.376 124.673 600.376ZM147.465 607H150.177V599.2C150.177 595.504 147.849 593.56 144.753 593.56C143.169 593.56 141.705 594.208 140.817 595.288V593.776H138.081V607H140.817V599.608C140.817 597.184 142.137 595.936 144.153 595.936C146.145 595.936 147.465 597.184 147.465 599.608V607ZM153.667 607H156.403V599.608C156.403 597.184 157.723 595.936 159.739 595.936C161.731 595.936 163.051 597.184 163.051 599.608V607H165.763V599.2C165.763 595.504 163.459 593.56 160.507 593.56C158.803 593.56 157.315 594.208 156.403 595.312V589.24H153.667V607ZM174.821 595.864C176.861 595.864 178.469 597.16 178.517 599.2H171.197C171.485 597.112 172.973 595.864 174.821 595.864ZM181.013 603.064H178.061C177.557 604.096 176.621 604.912 174.941 604.912C172.925 604.912 171.365 603.592 171.173 601.408H181.277C181.349 600.952 181.373 600.52 181.373 600.064C181.373 596.176 178.709 593.56 174.941 593.56C171.029 593.56 168.341 596.224 168.341 600.376C168.341 604.528 171.149 607.216 174.941 607.216C178.181 607.216 180.269 605.368 181.013 603.064ZM183.154 600.376C183.154 604.528 185.842 607.216 189.634 607.216C192.874 607.216 194.986 605.416 195.73 602.824H192.778C192.274 604.192 191.266 604.912 189.634 604.912C187.426 604.912 185.962 603.28 185.962 600.376C185.962 597.496 187.426 595.864 189.634 595.864C191.266 595.864 192.322 596.68 192.778 597.952H195.73C194.986 595.168 192.874 593.56 189.634 593.56C185.842 593.56 183.154 596.248 183.154 600.376ZM204.024 595.864C206.064 595.864 207.672 597.16 207.72 599.2H200.4C200.688 597.112 202.176 595.864 204.024 595.864ZM210.216 603.064H207.264C206.76 604.096 205.824 604.912 204.144 604.912C202.128 604.912 200.568 603.592 200.376 601.408H210.48C210.552 600.952 210.576 600.52 210.576 600.064C210.576 596.176 207.912 593.56 204.144 593.56C200.232 593.56 197.544 596.224 197.544 600.376C197.544 604.528 200.352 607.216 204.144 607.216C207.384 607.216 209.472 605.368 210.216 603.064Z" fill="#6A6180"/>
<path opacity="0.16" d="M51.12 481.48C49.0133 481.48 47.2667 481.067 45.88 480.24C44.4933 479.387 43.4267 477.92 42.68 475.84C41.9333 473.76 41.56 470.907 41.56 467.28C41.56 463.653 41.9333 460.8 42.68 458.72C43.4267 456.64 44.4933 455.187 45.88 454.36C47.2667 453.507 49.0133 453.08 51.12 453.08C53.2267 453.08 54.9733 453.507 56.36 454.36C57.7467 455.213 58.8133 456.68 59.56 458.76C60.3067 460.813 60.68 463.653 60.68 467.28C60.68 470.907 60.3067 473.76 59.56 475.84C58.8133 477.893 57.7467 479.347 56.36 480.2C54.9733 481.053 53.2267 481.48 51.12 481.48ZM51.12 478.08C52.5333 478.08 53.6267 477.707 54.4 476.96C55.1733 476.187 55.7067 475.08 56 473.64C56.2933 472.2 56.44 470.32 56.44 468V466.84C56.44 464.44 56.2933 462.507 56 461.04C55.7067 459.547 55.1733 458.413 54.4 457.64C53.6267 456.867 52.5333 456.48 51.12 456.48C49.7067 456.48 48.6133 456.867 47.84 457.64C47.0667 458.387 46.5333 459.48 46.24 460.92C45.9467 462.36 45.8 464.24 45.8 466.56V467.72C45.8 470.12 45.9467 472.067 46.24 473.56C46.5333 475.027 47.0667 476.147 47.84 476.92C48.6133 477.693 49.7067 478.08 51.12 478.08ZM63.8266 479.76C63.8266 478.293 64.1866 476.96 64.9066 475.76C65.6266 474.533 66.4932 473.467 67.5066 472.56C68.5466 471.653 69.9199 470.573 71.6266 469.32C73.0932 468.227 74.2399 467.333 75.0666 466.64C75.8932 465.947 76.5866 465.2 77.1466 464.4C77.9732 463.28 78.3866 462.067 78.3866 460.76C78.3866 459.64 78.0132 458.667 77.2666 457.84C76.5466 456.987 75.3332 456.56 73.6266 456.56C71.8399 456.56 70.5199 457 69.6666 457.88C68.8132 458.733 68.3866 459.893 68.3866 461.36V463H64.2666C64.1866 462.547 64.1466 462.013 64.1466 461.4C64.1466 458.627 65.0532 456.547 66.8666 455.16C68.7066 453.773 71.0266 453.08 73.8266 453.08C76.6799 453.08 78.8532 453.827 80.3466 455.32C81.8666 456.787 82.6266 458.707 82.6266 461.08C82.6266 462.653 82.2266 464.093 81.4266 465.4C80.6266 466.707 79.6532 467.867 78.5066 468.88C77.3599 469.867 75.8932 470.987 74.1066 472.24C73.9466 472.373 73.5066 472.693 72.7866 473.2C72.0932 473.707 71.4932 474.187 70.9866 474.64C70.4799 475.067 70.0532 475.467 69.7066 475.84C69.3866 476.187 69.0666 476.627 68.7466 477.16H82.7866V481H63.8266V479.76ZM87.8531 476.32H92.2931V481H87.8531V476.32Z" fill="#6A6180"/>
<rect x="58" y="716" width="4" height="4" rx="1" transform="rotate(-180 58 716)" fill="#04D361"/>
<rect x="46" y="716" width="4" height="4" rx="1" transform="rotate(-180 46 716)" fill="#C1BCCC"/>
<path d="M297.631 296.361L291.972 301.965" stroke="#24EF7F" stroke-width="3" stroke-miterlimit="10" stroke-linecap="round" stroke-linejoin="round"/>
<path d="M297.631 301.965L291.972 296.361" stroke="#24EF7F" stroke-width="2" stroke-miterlimit="10" stroke-linecap="round" stroke-linejoin="round"/>
<path d="M67.0021 218.208L59.0001 218.208" stroke="#24EF7F" stroke-width="2" stroke-miterlimit="10" stroke-linecap="round" stroke-linejoin="round"/>
<path d="M63.0021 222.181L63.0021 214.246" stroke="#24EF7F" stroke-width="2" stroke-miterlimit="10" stroke-linecap="round" stroke-linejoin="round"/>
<path d="M229.002 120.962L221 120.962" stroke="#24EF7F" stroke-width="2" stroke-miterlimit="10" stroke-linecap="round" stroke-linejoin="round"/>
<path d="M225.002 124.935L225.002 117" stroke="#24EF7F" stroke-width="2" stroke-miterlimit="10" stroke-linecap="round" stroke-linejoin="round"/>
<path d="M301.863 109.633C299.183 109.633 297 107.48 297 104.816C297 102.162 299.174 99.9999 301.863 99.9999C304.543 99.9999 306.726 102.153 306.726 104.816C306.717 107.48 304.543 109.633 301.863 109.633Z" stroke="#24EF7F" stroke-width="2" stroke-miterlimit="10" stroke-linecap="round" stroke-linejoin="round"/>
<path d="M101.62 304C98.9407 304 96.7575 301.847 96.7575 299.184C96.7575 296.529 98.9313 294.367 101.62 294.367C104.3 294.367 106.484 296.52 106.484 299.184C106.474 301.847 104.3 304 101.62 304Z" stroke="#24EF7F" stroke-width="2" stroke-miterlimit="10" stroke-linecap="round" stroke-linejoin="round"/>
<path d="M107.947 102.897C107.947 103.861 108.736 104.642 109.708 104.642C110.681 104.642 111.47 103.861 111.47 102.897C111.47 101.934 110.681 101.153 109.708 101.153C108.736 101.153 107.947 101.934 107.947 102.897Z" fill="#24EF7F"/>
<path d="M107.947 115.071C107.947 116.035 108.736 116.816 109.708 116.816C110.681 116.816 111.47 116.035 111.47 115.071C111.47 114.108 110.681 113.327 109.708 113.327C108.736 113.327 107.947 114.108 107.947 115.071Z" fill="#24EF7F"/>
<path d="M107.947 127.256C107.947 128.22 108.736 129.001 109.708 129.001C110.681 129.001 111.47 128.22 111.47 127.256C111.47 126.293 110.681 125.512 109.708 125.512C108.736 125.512 107.947 126.293 107.947 127.256Z" fill="#24EF7F"/>
<path d="M107.947 139.431C107.947 140.395 108.736 141.176 109.708 141.176C110.681 141.176 111.47 140.395 111.47 139.431C111.47 138.468 110.681 137.687 109.708 137.687C108.736 137.687 107.947 138.468 107.947 139.431Z" fill="#24EF7F"/>
<path d="M107.947 151.615C107.947 152.579 108.736 153.36 109.708 153.36C110.681 153.36 111.47 152.579 111.47 151.615C111.47 150.652 110.681 149.871 109.708 149.871C108.736 149.871 107.947 150.652 107.947 151.615Z" fill="#24EF7F"/>
<path d="M95.6536 102.897C95.6536 103.861 96.4422 104.642 97.4149 104.642C98.3876 104.642 99.1761 103.861 99.1761 102.897C99.1761 101.934 98.3876 101.153 97.4149 101.153C96.4422 101.153 95.6536 101.934 95.6536 102.897Z" fill="#24EF7F"/>
<path d="M95.6536 115.072C95.6536 116.035 96.4422 116.816 97.4149 116.816C98.3876 116.816 99.1761 116.035 99.1761 115.072C99.1761 114.108 98.3876 113.327 97.4149 113.327C96.4422 113.327 95.6536 114.108 95.6536 115.072Z" fill="#24EF7F"/>
<path d="M95.6536 127.256C95.6536 128.22 96.4422 129.001 97.4149 129.001C98.3876 129.001 99.1761 128.22 99.1761 127.256C99.1761 126.293 98.3876 125.512 97.4149 125.512C96.4422 125.512 95.6536 126.293 95.6536 127.256Z" fill="#24EF7F"/>
<path d="M95.6536 139.431C95.6536 140.394 96.4422 141.175 97.4149 141.175C98.3876 141.175 99.1761 140.394 99.1761 139.431C99.1761 138.468 98.3876 137.687 97.4149 137.687C96.4422 137.687 95.6536 138.468 95.6536 139.431Z" fill="#24EF7F"/>
<path d="M95.6536 151.615C95.6536 152.578 96.4422 153.359 97.4149 153.359C98.3876 153.359 99.1761 152.578 99.1761 151.615C99.1761 150.652 98.3876 149.871 97.4149 149.871C96.4422 149.871 95.6536 150.652 95.6536 151.615Z" fill="#24EF7F"/>
<path d="M83.3509 102.897C83.3509 103.861 84.1394 104.642 85.1122 104.642C86.0849 104.642 86.8734 103.861 86.8734 102.897C86.8734 101.934 86.0849 101.153 85.1122 101.153C84.1394 101.153 83.3509 101.934 83.3509 102.897Z" fill="#24EF7F"/>
<path d="M83.3509 115.072C83.3509 116.035 84.1394 116.816 85.1122 116.816C86.0849 116.816 86.8734 116.035 86.8734 115.072C86.8734 114.108 86.0849 113.327 85.1122 113.327C84.1394 113.327 83.3509 114.108 83.3509 115.072Z" fill="#24EF7F"/>
<path d="M83.3509 127.256C83.3509 128.22 84.1394 129.001 85.1122 129.001C86.0849 129.001 86.8734 128.22 86.8734 127.256C86.8734 126.293 86.0849 125.512 85.1122 125.512C84.1394 125.512 83.3509 126.293 83.3509 127.256Z" fill="#24EF7F"/>
<path d="M83.3509 139.431C83.3509 140.394 84.1394 141.175 85.1122 141.175C86.0849 141.175 86.8734 140.394 86.8734 139.431C86.8734 138.468 86.0849 137.687 85.1122 137.687C84.1394 137.687 83.3509 138.468 83.3509 139.431Z" fill="#24EF7F"/>
<path d="M83.3509 151.615C83.3509 152.578 84.1394 153.359 85.1122 153.359C86.0849 153.359 86.8734 152.578 86.8734 151.615C86.8734 150.652 86.0849 149.871 85.1122 149.871C84.1394 149.871 83.3509 150.652 83.3509 151.615Z" fill="#24EF7F"/>
<path d="M71.0576 102.897C71.0576 103.861 71.8461 104.642 72.8188 104.642C73.7915 104.642 74.5801 103.861 74.5801 102.897C74.5801 101.934 73.7915 101.153 72.8188 101.153C71.8461 101.153 71.0576 101.934 71.0576 102.897Z" fill="#24EF7F"/>
<path d="M71.0576 115.072C71.0576 116.035 71.8461 116.816 72.8188 116.816C73.7915 116.816 74.5801 116.035 74.5801 115.072C74.5801 114.108 73.7915 113.327 72.8188 113.327C71.8461 113.327 71.0576 114.108 71.0576 115.072Z" fill="#24EF7F"/>
<path d="M71.0576 127.256C71.0576 128.22 71.8461 129.001 72.8188 129.001C73.7915 129.001 74.5801 128.22 74.5801 127.256C74.5801 126.293 73.7915 125.512 72.8188 125.512C71.8461 125.512 71.0576 126.293 71.0576 127.256Z" fill="#24EF7F"/>
<path d="M71.0576 139.431C71.0576 140.394 71.8461 141.175 72.8188 141.175C73.7915 141.175 74.5801 140.394 74.5801 139.431C74.5801 138.468 73.7915 137.687 72.8188 137.687C71.8461 137.687 71.0576 138.468 71.0576 139.431Z" fill="#24EF7F"/>
<path d="M71.0576 151.615C71.0576 152.578 71.8461 153.359 72.8188 153.359C73.7915 153.359 74.5801 152.578 74.5801 151.615C74.5801 150.652 73.7915 149.871 72.8188 149.871C71.8461 149.871 71.0576 150.652 71.0576 151.615Z" fill="#24EF7F"/>
<path d="M313.477 205.703C313.477 206.667 314.266 207.448 315.239 207.448C316.211 207.448 317 206.667 317 205.703C317 204.74 316.211 203.959 315.239 203.959C314.266 203.959 313.477 204.74 313.477 205.703Z" fill="#24EF7F"/>
<path d="M313.477 217.878C313.477 218.841 314.266 219.622 315.239 219.622C316.211 219.622 317 218.841 317 217.878C317 216.915 316.211 216.133 315.239 216.133C314.266 216.133 313.477 216.914 313.477 217.878Z" fill="#24EF7F"/>
<path d="M313.477 230.062C313.477 231.025 314.266 231.806 315.239 231.806C316.211 231.806 317 231.025 317 230.062C317 229.099 316.211 228.318 315.239 228.318C314.266 228.318 313.477 229.099 313.477 230.062Z" fill="#24EF7F"/>
<path d="M301.175 205.703C301.175 206.666 301.963 207.447 302.936 207.447C303.909 207.447 304.697 206.666 304.697 205.703C304.697 204.74 303.909 203.959 302.936 203.959C301.963 203.959 301.175 204.74 301.175 205.703Z" fill="#24EF7F"/>
<path d="M301.175 217.878C301.175 218.841 301.963 219.622 302.936 219.622C303.909 219.622 304.697 218.841 304.697 217.878C304.697 216.914 303.909 216.133 302.936 216.133C301.963 216.133 301.175 216.914 301.175 217.878Z" fill="#24EF7F"/>
<path d="M301.175 230.062C301.175 231.026 301.963 231.807 302.936 231.807C303.909 231.807 304.697 231.026 304.697 230.062C304.697 229.099 303.909 228.318 302.936 228.318C301.963 228.318 301.175 229.099 301.175 230.062Z" fill="#24EF7F"/>
<path d="M228.25 168.75H145.75C141.608 168.75 138.25 172.108 138.25 176.25V225C138.25 229.142 141.608 232.5 145.75 232.5H228.25C232.392 232.5 235.75 229.142 235.75 225V176.25C235.75 172.108 232.392 168.75 228.25 168.75Z" stroke="white" stroke-width="6" stroke-linejoin="round"/>
<path d="M187 247.5V232.5" stroke="white" stroke-width="6" stroke-linecap="round" stroke-linejoin="round"/>
<path d="M187 168.75V161.25" stroke="white" stroke-width="6" stroke-linecap="round" stroke-linejoin="round"/>
<path d="M220.75 258.75L213.25 232.5" stroke="white" stroke-width="6" stroke-linecap="round" stroke-linejoin="round"/>
<path d="M153.25 258.75L160.75 232.5" stroke="white" stroke-width="6" stroke-linecap="round" stroke-linejoin="round"/>
<g clip-path="url(#clip0)">
<path d="M334 714L286 714" stroke="#9C98A6" stroke-width="1.5" stroke-linecap="round" stroke-linejoin="round"/>
<path d="M328.999 708.999L334 714L328.999 719.001" stroke="#9C98A6" stroke-width="1.5" stroke-linecap="round" stroke-linejoin="round"/>
</g>
<rect opacity="0.24" x="120" y="799" width="135" height="5" rx="2.5" fill="black"/>
<path d="M78 0H297C294.894 0.602689 293.418 2.49525 293.345 4.68446L293.317 5.5618C293.317 19.0587 282.375 30 268.878 30H106.122C92.6249 30 81.6835 19.0587 81.6835 5.5618L81.6545 4.68447C81.5823 2.49525 80.1059 0.602689 78 0Z" fill="black"/>
<path opacity="0.35" d="M336.5 22C336.5 20.8034 337.47 19.8334 338.667 19.8334H355.333C356.53 19.8334 357.5 20.8034 357.5 22V28C357.5 29.1967 356.53 30.1667 355.333 30.1667H338.667C337.47 30.1667 336.5 29.1967 336.5 28V22Z" fill="white" stroke="white"/>
<path opacity="0.4" d="M359 23V27C359.805 26.6613 360.328 25.8732 360.328 25C360.328 24.1269 359.805 23.3388 359 23Z" fill="white"/>
<path d="M338 22.6667C338 21.9303 338.597 21.3334 339.333 21.3334H354.667C355.403 21.3334 356 21.9303 356 22.6667V27.3334C356 28.0698 355.403 28.6667 354.667 28.6667H339.333C338.597 28.6667 338 28.0698 338 27.3334V22.6667Z" fill="white"/>
<path fill-rule="evenodd" clip-rule="evenodd" d="M323.33 21.608C325.546 21.6081 327.677 22.4596 329.283 23.9863C329.404 24.1042 329.598 24.1027 329.717 23.983L330.873 22.8163C330.933 22.7556 330.967 22.6734 330.966 22.5878C330.966 22.5022 330.931 22.4204 330.87 22.3603C326.655 18.3208 320.005 18.3208 315.79 22.3603C315.729 22.4203 315.694 22.5021 315.694 22.5877C315.693 22.6733 315.727 22.7556 315.787 22.8163L316.943 23.983C317.062 24.1029 317.256 24.1044 317.377 23.9863C318.983 22.4595 321.114 21.608 323.33 21.608ZM323.33 25.4037C324.548 25.4036 325.722 25.8561 326.624 26.6733C326.746 26.7893 326.939 26.7868 327.058 26.6677L328.212 25.501C328.273 25.4398 328.307 25.3568 328.306 25.2705C328.305 25.1843 328.27 25.102 328.208 25.042C325.459 22.4856 321.204 22.4856 318.455 25.042C318.393 25.102 318.358 25.1843 318.357 25.2706C318.356 25.3569 318.39 25.4399 318.451 25.501L319.605 26.6677C319.724 26.7868 319.917 26.7893 320.039 26.6733C320.941 25.8567 322.114 25.4042 323.33 25.4037ZM325.643 27.9575C325.645 28.044 325.611 28.1274 325.549 28.188L323.552 30.2037C323.493 30.2629 323.414 30.2963 323.33 30.2963C323.247 30.2963 323.167 30.2629 323.109 30.2037L321.111 28.188C321.049 28.1274 321.015 28.0439 321.017 27.9574C321.019 27.8709 321.056 27.789 321.121 27.731C322.396 26.6521 324.264 26.6521 325.54 27.731C325.604 27.7891 325.642 27.871 325.643 27.9575Z" fill="white"/>
<path fill-rule="evenodd" clip-rule="evenodd" d="M309.667 19.6666H308.667C308.114 19.6666 307.667 20.1143 307.667 20.6666V29.3333C307.667 29.8856 308.114 30.3333 308.667 30.3333H309.667C310.219 30.3333 310.667 29.8856 310.667 29.3333V20.6666C310.667 20.1143 310.219 19.6666 309.667 19.6666ZM304 22H305C305.552 22 306 22.4477 306 23V29.3333C306 29.8856 305.552 30.3333 305 30.3333H304C303.448 30.3333 303 29.8856 303 29.3333V23C303 22.4477 303.448 22 304 22ZM300.333 24.3333H299.333C298.781 24.3333 298.333 24.781 298.333 25.3333V29.3333C298.333 29.8856 298.781 30.3333 299.333 30.3333H300.333C300.886 30.3333 301.333 29.8856 301.333 29.3333V25.3333C301.333 24.781 300.886 24.3333 300.333 24.3333ZM295.667 26.3333H294.667C294.114 26.3333 293.667 26.781 293.667 27.3333V29.3333C293.667 29.8856 294.114 30.3333 294.667 30.3333H295.667C296.219 30.3333 296.667 29.8856 296.667 29.3333V27.3333C296.667 26.781 296.219 26.3333 295.667 26.3333Z" fill="white"/>
<path d="M37.3207 30.2563C40.0087 30.2563 41.6053 28.1543 41.6053 24.5947C41.6053 23.2544 41.349 22.1265 40.8583 21.2549C40.1478 19.8999 38.9247 19.1675 37.3793 19.1675C35.0795 19.1675 33.4535 20.7129 33.4535 22.8809C33.4535 24.917 34.9183 26.3965 36.9325 26.3965C38.1703 26.3965 39.1737 25.8179 39.6718 24.8145H39.6937C39.6937 24.8145 39.723 24.8145 39.7303 24.8145C39.745 24.8145 39.7963 24.8145 39.7963 24.8145C39.7963 27.2314 38.8807 28.6743 37.3353 28.6743C36.4271 28.6743 35.724 28.1763 35.4823 27.3779H33.6C33.9149 29.1138 35.3871 30.2563 37.3207 30.2563ZM37.3866 24.895C36.1708 24.895 35.3065 24.0308 35.3065 22.8223C35.3065 21.6431 36.2147 20.7422 37.3939 20.7422C38.5731 20.7422 39.4813 21.6577 39.4813 22.8516C39.4813 24.0308 38.5951 24.895 37.3866 24.895Z" fill="white"/>
<path d="M44.6965 30.1538C45.3923 30.1538 45.8683 29.6558 45.8683 28.9966C45.8683 28.3301 45.3923 27.8394 44.6965 27.8394C44.008 27.8394 43.5246 28.3301 43.5246 28.9966C43.5246 29.6558 44.008 30.1538 44.6965 30.1538ZM44.6965 24.6606C45.3923 24.6606 45.8683 24.1699 45.8683 23.5107C45.8683 22.8442 45.3923 22.3535 44.6965 22.3535C44.008 22.3535 43.5246 22.8442 43.5246 23.5107C43.5246 24.1699 44.008 24.6606 44.6965 24.6606Z" fill="white"/>
<path d="M52.7241 30H54.5332V28.0298H55.9614V26.4331H54.5332V19.4312H51.8672C49.9995 22.2437 48.5127 24.5947 47.5605 26.3452V28.0298H52.7241V30ZM49.311 26.3672C50.5415 24.1992 51.6401 22.4634 52.6509 20.9692H52.7534V26.4771H49.311V26.3672Z" fill="white"/>
<path d="M59.99 30H61.8797V19.4312H59.9973L57.2361 21.3647V23.1812L59.8655 21.3354H59.99V30Z" fill="white"/>
<defs>
<clipPath id="clip0">
<rect width="40" height="74" fill="white" transform="translate(273 734) rotate(-90)"/>
</clipPath>
</defs>
</svg>
