<svg width="375" height="812" viewBox="0 0 375 812" fill="none" xmlns="http://www.w3.org/2000/svg">
<rect width="375" height="812" fill="#F0F0F7"/>
<rect width="375" height="350" fill="#8257E5"/>
<path d="M51.016 522.296H41.8V539H51.016V536.768H44.536V531.656H50.296V529.424H44.536V524.528H51.016V522.296ZM63.7699 539H66.4819V531.2C66.4819 527.504 64.1539 525.56 61.0579 525.56C59.4739 525.56 58.0099 526.208 57.1219 527.288V525.776H54.3859V539H57.1219V531.608C57.1219 529.184 58.4419 527.936 60.4579 527.936C62.4499 527.936 63.7699 529.184 63.7699 531.608V539ZM69.0599 532.376C69.0599 536.528 71.7479 539.216 75.5399 539.216C78.7799 539.216 80.8919 537.416 81.6359 534.824H78.6839C78.1799 536.192 77.1719 536.912 75.5399 536.912C73.3319 536.912 71.8679 535.28 71.8679 532.376C71.8679 529.496 73.3319 527.864 75.5399 527.864C77.1719 527.864 78.2279 528.68 78.6839 529.952H81.6359C80.8919 527.168 78.7799 525.56 75.5399 525.56C71.7479 525.56 69.0599 528.248 69.0599 532.376ZM96.9625 532.376C96.9625 528.224 93.9865 525.56 90.2185 525.56C86.4505 525.56 83.4745 528.224 83.4745 532.376C83.4745 536.528 86.3305 539.216 90.0985 539.216C93.8905 539.216 96.9625 536.528 96.9625 532.376ZM86.2585 532.376C86.2585 529.376 88.1065 527.936 90.1705 527.936C92.2105 527.936 94.1545 529.376 94.1545 532.376C94.1545 535.376 92.1385 536.84 90.0985 536.84C88.0345 536.84 86.2585 535.376 86.2585 532.376ZM109.051 539H111.763V531.2C111.763 527.504 109.435 525.56 106.339 525.56C104.755 525.56 103.291 526.208 102.403 527.288V525.776H99.6672V539H102.403V531.608C102.403 529.184 103.723 527.936 105.739 527.936C107.731 527.936 109.051 529.184 109.051 531.608V539ZM115.685 535.328C115.685 538.016 117.149 539 119.501 539H121.661V536.72H119.981C118.829 536.72 118.445 536.312 118.445 535.328V528.008H121.661V525.776H118.445V522.488H115.685V525.776H114.125V528.008H115.685V535.328ZM126.919 532.04C126.919 529.232 128.167 528.392 130.183 528.392H130.879V525.56C129.007 525.56 127.687 526.376 126.919 527.696V525.776H124.183V539H126.919V532.04ZM138.962 527.864C141.002 527.864 142.61 529.16 142.658 531.2H135.338C135.626 529.112 137.114 527.864 138.962 527.864ZM145.154 535.064H142.202C141.698 536.096 140.762 536.912 139.082 536.912C137.066 536.912 135.506 535.592 135.314 533.408H145.418C145.49 532.952 145.514 532.52 145.514 532.064C145.514 528.176 142.85 525.56 139.082 525.56C135.17 525.56 132.482 528.224 132.482 532.376C132.482 536.528 135.29 539.216 139.082 539.216C142.322 539.216 144.41 537.368 145.154 535.064ZM152.881 525.776L157.897 539H161.161L166.201 525.776H163.297L159.553 536.552L155.809 525.776H152.881ZM167.357 532.328C167.357 536.408 170.117 539.216 173.549 539.216C175.757 539.216 177.341 538.16 178.181 537.032V539H180.941V525.776H178.181V527.696C177.365 526.616 175.829 525.56 173.597 525.56C170.117 525.56 167.357 528.248 167.357 532.328ZM178.181 532.376C178.181 535.232 176.237 536.84 174.173 536.84C172.133 536.84 170.165 535.184 170.165 532.328C170.165 529.472 172.133 527.936 174.173 527.936C176.237 527.936 178.181 529.544 178.181 532.376ZM171.773 522.824V524.84L177.077 522.224V519.896L171.773 522.824ZM187.27 532.04C187.27 529.232 188.518 528.392 190.534 528.392H191.23V525.56C189.358 525.56 188.038 526.376 187.27 527.696V525.776H184.534V539H187.27V532.04ZM193.745 539H196.481V525.776H193.745V539ZM195.137 524.024C196.097 524.024 196.865 523.256 196.865 522.272C196.865 521.288 196.097 520.52 195.137 520.52C194.153 520.52 193.385 521.288 193.385 522.272C193.385 523.256 194.153 524.024 195.137 524.024ZM212.673 532.376C212.673 528.224 209.697 525.56 205.929 525.56C202.161 525.56 199.185 528.224 199.185 532.376C199.185 536.528 202.041 539.216 205.809 539.216C209.601 539.216 212.673 536.528 212.673 532.376ZM201.969 532.376C201.969 529.376 203.817 527.936 205.881 527.936C207.921 527.936 209.865 529.376 209.865 532.376C209.865 535.376 207.849 536.84 205.809 536.84C203.745 536.84 201.969 535.376 201.969 532.376ZM225.242 535.304C225.098 530.528 217.634 532.016 217.634 529.352C217.634 528.464 218.402 527.864 219.866 527.864C221.354 527.864 222.242 528.656 222.338 529.808H225.074C224.93 527.168 222.962 525.56 219.962 525.56C216.842 525.56 214.874 527.264 214.874 529.376C214.874 534.224 222.554 532.736 222.554 535.328C222.554 536.24 221.714 536.912 220.13 536.912C218.618 536.912 217.586 536.024 217.49 534.944H214.658C214.778 537.344 217.01 539.216 220.178 539.216C223.298 539.216 225.242 537.536 225.242 535.304ZM44.536 561.72V559.776H41.8V579.288H44.536V571.08C45.4 572.112 46.96 573.216 49.144 573.216C52.624 573.216 55.36 570.408 55.36 566.328C55.36 562.248 52.624 559.56 49.144 559.56C46.984 559.56 45.376 560.616 44.536 561.72ZM52.576 566.328C52.576 569.184 50.608 570.84 48.544 570.84C46.504 570.84 44.536 569.232 44.536 566.376C44.536 563.544 46.504 561.936 48.544 561.936C50.608 561.936 52.576 563.472 52.576 566.328ZM60.8016 566.04C60.8016 563.232 62.0496 562.392 64.0656 562.392H64.7616V559.56C62.8896 559.56 61.5696 560.376 60.8016 561.696V559.776H58.0656V573H60.8016V566.04ZM79.8766 566.376C79.8766 562.224 76.9006 559.56 73.1326 559.56C69.3646 559.56 66.3886 562.224 66.3886 566.376C66.3886 570.528 69.2446 573.216 73.0126 573.216C76.8046 573.216 79.8766 570.528 79.8766 566.376ZM69.1726 566.376C69.1726 563.376 71.0206 561.936 73.0846 561.936C75.1246 561.936 77.0686 563.376 77.0686 566.376C77.0686 569.376 75.0526 570.84 73.0126 570.84C70.9486 570.84 69.1726 569.376 69.1726 566.376ZM82.9173 573H85.6773V562.008H88.1253V559.776H85.6773V558.84C85.6773 557.328 86.2533 556.752 87.9333 556.752V554.472C84.4773 554.472 82.9173 555.792 82.9173 558.84V559.776H81.3573V562.008H82.9173V573ZM96.118 561.864C98.158 561.864 99.766 563.16 99.814 565.2H92.494C92.782 563.112 94.27 561.864 96.118 561.864ZM102.31 569.064H99.358C98.854 570.096 97.918 570.912 96.238 570.912C94.222 570.912 92.662 569.592 92.47 567.408H102.574C102.646 566.952 102.67 566.52 102.67 566.064C102.67 562.176 100.006 559.56 96.238 559.56C92.326 559.56 89.638 562.224 89.638 566.376C89.638 570.528 92.446 573.216 96.238 573.216C99.478 573.216 101.566 571.368 102.31 569.064ZM115.227 569.304C115.083 564.528 107.619 566.016 107.619 563.352C107.619 562.464 108.387 561.864 109.851 561.864C111.339 561.864 112.227 562.656 112.323 563.808H115.059C114.915 561.168 112.947 559.56 109.947 559.56C106.827 559.56 104.859 561.264 104.859 563.376C104.859 568.224 112.539 566.736 112.539 569.328C112.539 570.24 111.699 570.912 110.115 570.912C108.603 570.912 107.571 570.024 107.475 568.944H104.643C104.763 571.344 106.995 573.216 110.163 573.216C113.283 573.216 115.227 571.536 115.227 569.304ZM128.047 569.304C127.903 564.528 120.439 566.016 120.439 563.352C120.439 562.464 121.207 561.864 122.671 561.864C124.159 561.864 125.047 562.656 125.143 563.808H127.879C127.735 561.168 125.767 559.56 122.767 559.56C119.647 559.56 117.679 561.264 117.679 563.376C117.679 568.224 125.359 566.736 125.359 569.328C125.359 570.24 124.519 570.912 122.935 570.912C121.423 570.912 120.391 570.024 120.295 568.944H117.463C117.583 571.344 119.815 573.216 122.983 573.216C126.103 573.216 128.047 571.536 128.047 569.304ZM143.603 566.376C143.603 562.224 140.627 559.56 136.859 559.56C133.091 559.56 130.115 562.224 130.115 566.376C130.115 570.528 132.971 573.216 136.739 573.216C140.531 573.216 143.603 570.528 143.603 566.376ZM132.899 566.376C132.899 563.376 134.747 561.936 136.811 561.936C138.851 561.936 140.795 563.376 140.795 566.376C140.795 569.376 138.779 570.84 136.739 570.84C134.675 570.84 132.899 569.376 132.899 566.376ZM149.044 566.04C149.044 563.232 150.292 562.392 152.308 562.392H153.004V559.56C151.132 559.56 149.812 560.376 149.044 561.696V559.776H146.308V573H149.044V566.04ZM161.087 561.864C163.127 561.864 164.735 563.16 164.783 565.2H157.463C157.751 563.112 159.239 561.864 161.087 561.864ZM167.279 569.064H164.327C163.823 570.096 162.887 570.912 161.207 570.912C159.191 570.912 157.631 569.592 157.439 567.408H167.543C167.615 566.952 167.639 566.52 167.639 566.064C167.639 562.176 164.975 559.56 161.207 559.56C157.295 559.56 154.607 562.224 154.607 566.376C154.607 570.528 157.415 573.216 161.207 573.216C164.447 573.216 166.535 571.368 167.279 569.064ZM180.195 569.304C180.051 564.528 172.587 566.016 172.587 563.352C172.587 562.464 173.355 561.864 174.819 561.864C176.307 561.864 177.195 562.656 177.291 563.808H180.027C179.883 561.168 177.915 559.56 174.915 559.56C171.795 559.56 169.827 561.264 169.827 563.376C169.827 568.224 177.507 566.736 177.507 569.328C177.507 570.24 176.667 570.912 175.083 570.912C173.571 570.912 172.539 570.024 172.443 568.944H169.611C169.731 571.344 171.963 573.216 175.131 573.216C178.251 573.216 180.195 571.536 180.195 569.304ZM192.122 561.72V559.776H189.386V579.288H192.122V571.08C192.986 572.112 194.546 573.216 196.73 573.216C200.21 573.216 202.946 570.408 202.946 566.328C202.946 562.248 200.21 559.56 196.73 559.56C194.57 559.56 192.962 560.616 192.122 561.72ZM200.162 566.328C200.162 569.184 198.194 570.84 196.13 570.84C194.09 570.84 192.122 569.232 192.122 566.376C192.122 563.544 194.09 561.936 196.13 561.936C198.194 561.936 200.162 563.472 200.162 566.328ZM204.74 566.328C204.74 570.408 207.5 573.216 210.932 573.216C213.14 573.216 214.724 572.16 215.564 571.032V573H218.324V559.776H215.564V561.696C214.748 560.616 213.212 559.56 210.98 559.56C207.5 559.56 204.74 562.248 204.74 566.328ZM215.564 566.376C215.564 569.232 213.62 570.84 211.556 570.84C209.516 570.84 207.548 569.184 207.548 566.328C207.548 563.472 209.516 561.936 211.556 561.936C213.62 561.936 215.564 563.544 215.564 566.376ZM224.653 566.04C224.653 563.232 225.901 562.392 227.917 562.392H228.613V559.56C226.741 559.56 225.421 560.376 224.653 561.696V559.776H221.917V573H224.653V566.04ZM230.216 566.328C230.216 570.408 232.976 573.216 236.408 573.216C238.616 573.216 240.2 572.16 241.04 571.032V573H243.8V559.776H241.04V561.696C240.224 560.616 238.688 559.56 236.456 559.56C232.976 559.56 230.216 562.248 230.216 566.328ZM241.04 566.376C241.04 569.232 239.096 570.84 237.032 570.84C234.992 570.84 233.024 569.184 233.024 566.328C233.024 563.472 234.992 561.936 237.032 561.936C239.096 561.936 241.04 563.544 241.04 566.376ZM47.368 595.864C49.408 595.864 51.016 597.16 51.064 599.2H43.744C44.032 597.112 45.52 595.864 47.368 595.864ZM53.56 603.064H50.608C50.104 604.096 49.168 604.912 47.488 604.912C45.472 604.912 43.912 603.592 43.72 601.408H53.824C53.896 600.952 53.92 600.52 53.92 600.064C53.92 596.176 51.256 593.56 47.488 593.56C43.576 593.56 40.888 596.224 40.888 600.376C40.888 604.528 43.696 607.216 47.488 607.216C50.728 607.216 52.816 605.368 53.56 603.064ZM65.9965 607H68.7085V599.2C68.7085 595.504 66.3805 593.56 63.2845 593.56C61.7005 593.56 60.2365 594.208 59.3485 595.288V593.776H56.6125V607H59.3485V599.608C59.3485 597.184 60.6685 595.936 62.6845 595.936C64.6765 595.936 65.9965 597.184 65.9965 599.608V607ZM82.0624 603.304C81.9184 598.528 74.4544 600.016 74.4544 597.352C74.4544 596.464 75.2224 595.864 76.6864 595.864C78.1744 595.864 79.0624 596.656 79.1584 597.808H81.8944C81.7504 595.168 79.7824 593.56 76.7824 593.56C73.6624 593.56 71.6944 595.264 71.6944 597.376C71.6944 602.224 79.3744 600.736 79.3744 603.328C79.3744 604.24 78.5344 604.912 76.9504 604.912C75.4384 604.912 74.4064 604.024 74.3104 602.944H71.4784C71.5984 605.344 73.8304 607.216 76.9984 607.216C80.1184 607.216 82.0624 605.536 82.0624 603.304ZM85.0188 607H87.7548V593.776H85.0188V607ZM86.4108 592.024C87.3708 592.024 88.1388 591.256 88.1388 590.272C88.1388 589.288 87.3708 588.52 86.4108 588.52C85.4268 588.52 84.6588 589.288 84.6588 590.272C84.6588 591.256 85.4268 592.024 86.4108 592.024ZM100.731 607H103.443V599.2C103.443 595.504 101.115 593.56 98.0189 593.56C96.4349 593.56 94.9709 594.208 94.0829 595.288V593.776H91.3469V607H94.0829V599.608C94.0829 597.184 95.4029 595.936 97.4189 595.936C99.4109 595.936 100.731 597.184 100.731 599.608V607ZM106.021 600.328C106.021 604.408 108.781 607.216 112.213 607.216C114.421 607.216 116.005 606.16 116.845 605.032V607H119.605V593.776H116.845V595.696C116.029 594.616 114.493 593.56 112.261 593.56C108.781 593.56 106.021 596.248 106.021 600.328ZM116.845 600.376C116.845 603.232 114.901 604.84 112.837 604.84C110.797 604.84 108.829 603.184 108.829 600.328C108.829 597.472 110.797 595.936 112.837 595.936C114.901 595.936 116.845 597.544 116.845 600.376ZM125.934 600.04C125.934 597.232 127.182 596.392 129.198 596.392H129.894V593.56C128.022 593.56 126.702 594.376 125.934 595.696V593.776H123.198V607H125.934V600.04ZM137.084 593.776L142.1 607H145.364L150.404 593.776H147.5L143.756 604.552L140.012 593.776H137.084ZM165.072 600.376C165.072 596.224 162.096 593.56 158.328 593.56C154.56 593.56 151.584 596.224 151.584 600.376C151.584 604.528 154.44 607.216 158.208 607.216C162 607.216 165.072 604.528 165.072 600.376ZM154.368 600.376C154.368 597.376 156.216 595.936 158.28 595.936C160.32 595.936 162.264 597.376 162.264 600.376C162.264 603.376 160.248 604.84 158.208 604.84C156.144 604.84 154.368 603.376 154.368 600.376ZM166.865 600.376C166.865 604.528 169.553 607.216 173.345 607.216C176.585 607.216 178.697 605.416 179.441 602.824H176.489C175.985 604.192 174.977 604.912 173.345 604.912C171.137 604.912 169.673 603.28 169.673 600.376C169.673 597.496 171.137 595.864 173.345 595.864C174.977 595.864 176.033 596.68 176.489 597.952H179.441C178.697 595.168 176.585 593.56 173.345 593.56C169.553 593.56 166.865 596.248 166.865 600.376ZM187.735 595.864C189.775 595.864 191.383 597.16 191.431 599.2H184.111C184.399 597.112 185.887 595.864 187.735 595.864ZM193.927 603.064H190.975C190.471 604.096 189.535 604.912 187.855 604.912C185.839 604.912 184.279 603.592 184.087 601.408H194.191C194.263 600.952 194.287 600.52 194.287 600.064C194.287 596.176 191.623 593.56 187.855 593.56C183.943 593.56 181.255 596.224 181.255 600.376C181.255 604.528 184.063 607.216 187.855 607.216C191.095 607.216 193.183 605.368 193.927 603.064ZM191.215 590.704L187.783 588.712L184.351 590.704V592.84L187.783 590.776L191.215 592.84V590.704Z" fill="#6A6180"/>
<path opacity="0.16" d="M51.12 481.48C49.0133 481.48 47.2667 481.067 45.88 480.24C44.4933 479.387 43.4267 477.92 42.68 475.84C41.9333 473.76 41.56 470.907 41.56 467.28C41.56 463.653 41.9333 460.8 42.68 458.72C43.4267 456.64 44.4933 455.187 45.88 454.36C47.2667 453.507 49.0133 453.08 51.12 453.08C53.2267 453.08 54.9733 453.507 56.36 454.36C57.7467 455.213 58.8133 456.68 59.56 458.76C60.3067 460.813 60.68 463.653 60.68 467.28C60.68 470.907 60.3067 473.76 59.56 475.84C58.8133 477.893 57.7467 479.347 56.36 480.2C54.9733 481.053 53.2267 481.48 51.12 481.48ZM51.12 478.08C52.5333 478.08 53.6267 477.707 54.4 476.96C55.1733 476.187 55.7067 475.08 56 473.64C56.2933 472.2 56.44 470.32 56.44 468V466.84C56.44 464.44 56.2933 462.507 56 461.04C55.7067 459.547 55.1733 458.413 54.4 457.64C53.6267 456.867 52.5333 456.48 51.12 456.48C49.7067 456.48 48.6133 456.867 47.84 457.64C47.0667 458.387 46.5333 459.48 46.24 460.92C45.9467 462.36 45.8 464.24 45.8 466.56V467.72C45.8 470.12 45.9467 472.067 46.24 473.56C46.5333 475.027 47.0667 476.147 47.84 476.92C48.6133 477.693 49.7067 478.08 51.12 478.08ZM65.8666 477.6H72.7466V459.08H65.8266V456.56C67.1066 456.427 68.6266 456.08 70.3866 455.52C72.1732 454.96 73.7332 454.307 75.0666 453.56H76.8666V477.6H83.2266V481H65.8666V477.6ZM87.8531 476.32H92.2931V481H87.8531V476.32Z" fill="#6A6180"/>
<path d="M143 168H170C174.774 168 179.352 169.967 182.728 173.467C186.104 176.968 188 181.716 188 186.667V252C188 248.287 186.578 244.726 184.046 242.1C181.514 239.475 178.08 238 174.5 238H143V168Z" stroke="white" stroke-width="6" stroke-linecap="round" stroke-linejoin="round"/>
<path d="M233 168H206C201.226 168 196.648 169.967 193.272 173.467C189.896 176.968 188 181.716 188 186.667V252C188 248.287 189.422 244.726 191.954 242.1C194.486 239.475 197.92 238 201.5 238H233V168Z" stroke="white" stroke-width="6" stroke-linecap="round" stroke-linejoin="round"/>
<rect x="40" y="712" width="4" height="4" rx="1" fill="#8257E5"/>
<rect x="52" y="712" width="4" height="4" rx="1" fill="#C1BCCC"/>
<path fill-rule="evenodd" clip-rule="evenodd" d="M70.253 182.721C70.6441 182.331 70.6449 181.698 70.2549 181.307C69.8649 180.916 69.2318 180.915 68.8407 181.305L66.7289 183.411L64.617 181.305C64.226 180.915 63.5928 180.916 63.2028 181.307C62.8128 181.698 62.8137 182.331 63.2047 182.721L65.3127 184.823L63.2047 186.926C62.8137 187.316 62.8128 187.949 63.2028 188.34C63.5928 188.731 64.226 188.732 64.617 188.342L66.7289 186.236L68.8407 188.342C69.2318 188.732 69.8649 188.731 70.2549 188.34C70.6449 187.949 70.6441 187.316 70.253 186.926L68.145 184.823L70.253 182.721Z" fill="#9871F5"/>
<path d="M306.156 181.674C303.487 181.674 301.313 179.515 301.313 176.843C301.313 174.181 303.478 172.012 306.156 172.012C308.825 172.012 311 174.172 311 176.843C310.991 179.515 308.825 181.674 306.156 181.674Z" stroke="#9871F5" stroke-width="2" stroke-miterlimit="10" stroke-linecap="round" stroke-linejoin="round"/>
<path d="M107.844 98.6647C105.175 98.6647 103 96.5051 103 93.8335C103 91.1713 105.165 89.0023 107.844 89.0023C110.513 89.0023 112.687 91.1619 112.687 93.8335C112.678 96.5051 110.513 98.6647 107.844 98.6647Z" stroke="#9871F5" stroke-width="2" stroke-miterlimit="10" stroke-linecap="round" stroke-linejoin="round"/>
<path d="M143.652 298L138 303.621" stroke="#9871F5" stroke-width="2" stroke-miterlimit="10" stroke-linecap="round" stroke-linejoin="round"/>
<path d="M143.652 303.621L138 298" stroke="#9871F5" stroke-width="2" stroke-miterlimit="10" stroke-linecap="round" stroke-linejoin="round"/>
<path d="M287.573 292.711C284.615 292.711 282.216 290.319 282.216 287.368C282.216 284.417 284.615 282.025 287.573 282.025C290.532 282.025 292.93 284.417 292.93 287.368C292.93 290.309 290.532 292.711 287.573 292.711Z" stroke="#9871F5" stroke-width="2" stroke-miterlimit="10" stroke-linecap="round" stroke-linejoin="round"/>
<path d="M283.878 291.23L280.089 294.999" stroke="#9871F5" stroke-width="2" stroke-miterlimit="10" stroke-linecap="round" stroke-linejoin="round"/>
<path d="M78.2448 263.772C78.2448 264.739 79.0302 265.522 79.999 265.522C80.9679 265.522 81.7533 264.739 81.7533 263.772C81.7533 262.806 80.9679 262.023 79.999 262.023C79.0302 262.023 78.2448 262.806 78.2448 263.772Z" fill="#9871F5"/>
<path d="M78.2452 275.985C78.2452 276.952 79.0306 277.735 79.9995 277.735C80.9683 277.735 81.7537 276.952 81.7537 275.985C81.7537 275.019 80.9683 274.236 79.9995 274.236C79.0306 274.236 78.2452 275.019 78.2452 275.985Z" fill="#9871F5"/>
<path d="M78.2452 288.205C78.2452 289.171 79.0306 289.955 79.9995 289.955C80.9683 289.955 81.7537 289.171 81.7537 288.205C81.7537 287.239 80.9683 286.456 79.9995 286.456C79.0306 286.456 78.2452 287.239 78.2452 288.205Z" fill="#9871F5"/>
<path d="M65.9913 263.772C65.9913 264.738 66.7767 265.521 67.7456 265.521C68.7144 265.521 69.4998 264.738 69.4998 263.772C69.4998 262.806 68.7144 262.022 67.7456 262.022C66.7767 262.022 65.9913 262.806 65.9913 263.772Z" fill="#9871F5"/>
<path d="M65.9913 275.985C65.9913 276.952 66.7767 277.735 67.7456 277.735C68.7144 277.735 69.4998 276.952 69.4998 275.985C69.4998 275.019 68.7144 274.236 67.7456 274.236C66.7767 274.236 65.9913 275.019 65.9913 275.985Z" fill="#9871F5"/>
<path d="M65.9913 288.205C65.9913 289.171 66.7767 289.955 67.7456 289.955C68.7144 289.955 69.4998 289.171 69.4998 288.205C69.4998 287.239 68.7144 286.456 67.7456 286.456C66.7767 286.456 65.9913 287.239 65.9913 288.205Z" fill="#9871F5"/>
<path d="M275.096 107.404C275.096 108.37 275.881 109.153 276.85 109.153C277.819 109.153 278.604 108.37 278.604 107.404C278.604 106.437 277.819 105.654 276.85 105.654C275.881 105.654 275.096 106.437 275.096 107.404Z" fill="#9871F5"/>
<path d="M262.842 107.404C262.842 108.371 263.627 109.154 264.596 109.154C265.565 109.154 266.35 108.371 266.35 107.404C266.35 106.438 265.565 105.655 264.596 105.655C263.627 105.655 262.842 106.438 262.842 107.404Z" fill="#9871F5"/>
<path d="M250.597 107.404C250.597 108.371 251.383 109.154 252.352 109.154C253.32 109.154 254.106 108.371 254.106 107.404C254.106 106.438 253.32 105.655 252.352 105.655C251.383 105.655 250.597 106.438 250.597 107.404Z" fill="#9871F5"/>
<path d="M238.343 107.404C238.343 108.371 239.129 109.154 240.098 109.154C241.066 109.154 241.852 108.371 241.852 107.404C241.852 106.438 241.066 105.655 240.098 105.655C239.129 105.655 238.343 106.438 238.343 107.404Z" fill="#9871F5"/>
<path d="M226.099 107.404C226.099 108.371 226.884 109.154 227.853 109.154C228.822 109.154 229.607 108.371 229.607 107.404C229.607 106.438 228.822 105.655 227.853 105.655C226.884 105.655 226.099 106.438 226.099 107.404Z" fill="#9871F5"/>
<path d="M213.845 107.404C213.845 108.371 214.63 109.154 215.599 109.154C216.568 109.154 217.354 108.371 217.354 107.404C217.354 106.438 216.568 105.655 215.599 105.655C214.63 105.655 213.845 106.438 213.845 107.404Z" fill="#9871F5"/>
<path d="M201.6 107.404C201.6 108.371 202.386 109.154 203.355 109.154C204.323 109.154 205.109 108.371 205.109 107.404C205.109 106.438 204.323 105.655 203.355 105.655C202.386 105.655 201.6 106.438 201.6 107.404Z" fill="#9871F5"/>
<path d="M275.096 95.183C275.096 96.1493 275.881 96.9326 276.85 96.9326C277.819 96.9326 278.604 96.1493 278.604 95.183C278.604 94.2168 277.819 93.4335 276.85 93.4335C275.881 93.4335 275.096 94.2168 275.096 95.183Z" fill="#9871F5"/>
<path d="M262.842 95.1831C262.842 96.1493 263.627 96.9326 264.596 96.9326C265.565 96.9326 266.35 96.1493 266.35 95.1831C266.35 94.2169 265.565 93.4336 264.596 93.4336C263.627 93.4336 262.842 94.2169 262.842 95.1831Z" fill="#9871F5"/>
<path d="M250.597 95.1831C250.597 96.1493 251.383 96.9326 252.352 96.9326C253.32 96.9326 254.106 96.1493 254.106 95.1831C254.106 94.2169 253.32 93.4336 252.352 93.4336C251.383 93.4336 250.597 94.2169 250.597 95.1831Z" fill="#9871F5"/>
<path d="M238.343 95.1831C238.343 96.1493 239.129 96.9326 240.098 96.9326C241.066 96.9326 241.852 96.1493 241.852 95.1831C241.852 94.2169 241.066 93.4336 240.098 93.4336C239.129 93.4336 238.343 94.2169 238.343 95.1831Z" fill="#9871F5"/>
<path d="M226.099 95.1831C226.099 96.1493 226.884 96.9326 227.853 96.9326C228.822 96.9326 229.607 96.1493 229.607 95.1831C229.607 94.2169 228.822 93.4336 227.853 93.4336C226.884 93.4336 226.099 94.2169 226.099 95.1831Z" fill="#9871F5"/>
<path d="M213.845 95.1831C213.845 96.1493 214.63 96.9326 215.599 96.9326C216.568 96.9326 217.354 96.1493 217.354 95.1831C217.354 94.2169 216.568 93.4336 215.599 93.4336C214.63 93.4336 213.845 94.2169 213.845 95.1831Z" fill="#9871F5"/>
<path d="M201.6 95.1831C201.6 96.1493 202.386 96.9326 203.355 96.9326C204.323 96.9326 205.109 96.1493 205.109 95.1831C205.109 94.2169 204.323 93.4336 203.355 93.4336C202.386 93.4336 201.6 94.2169 201.6 95.1831Z" fill="#9871F5"/>
<path d="M275.096 82.9707C275.096 83.9369 275.881 84.7202 276.85 84.7202C277.819 84.7202 278.604 83.9369 278.604 82.9707C278.604 82.0044 277.819 81.2212 276.85 81.2212C275.881 81.2212 275.096 82.0044 275.096 82.9707Z" fill="#9871F5"/>
<path d="M262.842 82.9707C262.842 83.9369 263.627 84.7202 264.596 84.7202C265.565 84.7202 266.35 83.9369 266.35 82.9707C266.35 82.0045 265.565 81.2212 264.596 81.2212C263.627 81.2212 262.842 82.0045 262.842 82.9707Z" fill="#9871F5"/>
<path d="M250.597 82.9707C250.597 83.9369 251.383 84.7202 252.352 84.7202C253.32 84.7202 254.106 83.9369 254.106 82.9707C254.106 82.0045 253.32 81.2212 252.352 81.2212C251.383 81.2212 250.597 82.0045 250.597 82.9707Z" fill="#9871F5"/>
<path d="M238.343 82.9707C238.343 83.9369 239.129 84.7202 240.098 84.7202C241.066 84.7202 241.852 83.9369 241.852 82.9707C241.852 82.0045 241.066 81.2212 240.098 81.2212C239.129 81.2212 238.343 82.0045 238.343 82.9707Z" fill="#9871F5"/>
<path d="M226.099 82.9707C226.099 83.9369 226.884 84.7202 227.853 84.7202C228.822 84.7202 229.607 83.9369 229.607 82.9707C229.607 82.0045 228.822 81.2212 227.853 81.2212C226.884 81.2212 226.099 82.0045 226.099 82.9707Z" fill="#9871F5"/>
<path d="M213.845 82.9707C213.845 83.9369 214.63 84.7202 215.599 84.7202C216.568 84.7202 217.354 83.9369 217.354 82.9707C217.354 82.0045 216.568 81.2212 215.599 81.2212C214.63 81.2212 213.845 82.0045 213.845 82.9707Z" fill="#9871F5"/>
<path d="M201.6 82.9707C201.6 83.9369 202.386 84.7202 203.355 84.7202C204.323 84.7202 205.109 83.9369 205.109 82.9707C205.109 82.0045 204.323 81.2212 203.355 81.2212C202.386 81.2212 201.6 82.0045 201.6 82.9707Z" fill="#9871F5"/>
<path d="M275.095 70.75C275.095 71.7162 275.88 72.4995 276.849 72.4995C277.818 72.4995 278.603 71.7162 278.603 70.75C278.603 69.7837 277.818 69.0005 276.849 69.0005C275.88 69.0005 275.095 69.7837 275.095 70.75Z" fill="#9871F5"/>
<path d="M262.842 70.7495C262.842 71.7157 263.627 72.499 264.596 72.499C265.565 72.499 266.35 71.7157 266.35 70.7495C266.35 69.7833 265.565 69 264.596 69C263.627 69 262.842 69.7833 262.842 70.7495Z" fill="#9871F5"/>
<path d="M250.597 70.7495C250.597 71.7157 251.383 72.499 252.352 72.499C253.32 72.499 254.106 71.7157 254.106 70.7495C254.106 69.7833 253.32 69 252.352 69C251.383 69 250.597 69.7833 250.597 70.7495Z" fill="#9871F5"/>
<path d="M238.343 70.7495C238.343 71.7157 239.129 72.499 240.098 72.499C241.066 72.499 241.852 71.7157 241.852 70.7495C241.852 69.7833 241.066 69 240.098 69C239.129 69 238.343 69.7833 238.343 70.7495Z" fill="#9871F5"/>
<path d="M226.099 70.7495C226.099 71.7157 226.884 72.499 227.853 72.499C228.822 72.499 229.607 71.7157 229.607 70.7495C229.607 69.7833 228.822 69 227.853 69C226.884 69 226.099 69.7833 226.099 70.7495Z" fill="#9871F5"/>
<path d="M213.845 70.7495C213.845 71.7157 214.63 72.499 215.599 72.499C216.568 72.499 217.354 71.7157 217.354 70.7495C217.354 69.7833 216.568 69 215.599 69C214.63 69 213.845 69.7833 213.845 70.7495Z" fill="#9871F5"/>
<path d="M201.6 70.7495C201.6 71.7157 202.386 72.499 203.355 72.499C204.323 72.499 205.109 71.7157 205.109 70.7495C205.109 69.7833 204.323 69 203.355 69C202.386 69 201.6 69.7833 201.6 70.7495Z" fill="#9871F5"/>
<g clip-path="url(#clip0)">
<path d="M334 714L286 714" stroke="#9C98A6" stroke-width="1.5" stroke-linecap="round" stroke-linejoin="round"/>
<path d="M328.999 708.999L334 714L328.999 719.001" stroke="#9C98A6" stroke-width="1.5" stroke-linecap="round" stroke-linejoin="round"/>
</g>
<rect opacity="0.24" x="120" y="799" width="135" height="5" rx="2.5" fill="black"/>
<path d="M78 0H297C294.894 0.602689 293.418 2.49525 293.345 4.68446L293.317 5.5618C293.317 19.0587 282.375 30 268.878 30H106.122C92.6249 30 81.6835 19.0587 81.6835 5.5618L81.6545 4.68447C81.5823 2.49525 80.1059 0.602689 78 0Z" fill="black"/>
<path opacity="0.35" d="M336.5 22C336.5 20.8034 337.47 19.8334 338.667 19.8334H355.333C356.53 19.8334 357.5 20.8034 357.5 22V28C357.5 29.1967 356.53 30.1667 355.333 30.1667H338.667C337.47 30.1667 336.5 29.1967 336.5 28V22Z" fill="white" stroke="white"/>
<path opacity="0.4" d="M359 23V27C359.805 26.6613 360.328 25.8732 360.328 25C360.328 24.1269 359.805 23.3388 359 23Z" fill="white"/>
<path d="M338 22.6667C338 21.9303 338.597 21.3334 339.333 21.3334H354.667C355.403 21.3334 356 21.9303 356 22.6667V27.3334C356 28.0698 355.403 28.6667 354.667 28.6667H339.333C338.597 28.6667 338 28.0698 338 27.3334V22.6667Z" fill="white"/>
<path fill-rule="evenodd" clip-rule="evenodd" d="M323.33 21.608C325.546 21.6081 327.677 22.4596 329.283 23.9863C329.404 24.1042 329.598 24.1027 329.717 23.983L330.873 22.8163C330.933 22.7556 330.967 22.6734 330.966 22.5878C330.966 22.5022 330.931 22.4204 330.87 22.3603C326.655 18.3208 320.005 18.3208 315.79 22.3603C315.729 22.4203 315.694 22.5021 315.694 22.5877C315.693 22.6733 315.727 22.7556 315.787 22.8163L316.943 23.983C317.062 24.1029 317.256 24.1044 317.377 23.9863C318.983 22.4595 321.114 21.608 323.33 21.608ZM323.33 25.4037C324.548 25.4036 325.722 25.8561 326.624 26.6733C326.746 26.7893 326.939 26.7868 327.058 26.6677L328.212 25.501C328.273 25.4398 328.307 25.3568 328.306 25.2705C328.305 25.1843 328.27 25.102 328.208 25.042C325.459 22.4856 321.204 22.4856 318.455 25.042C318.393 25.102 318.358 25.1843 318.357 25.2706C318.356 25.3569 318.39 25.4399 318.451 25.501L319.605 26.6677C319.724 26.7868 319.917 26.7893 320.039 26.6733C320.941 25.8567 322.114 25.4042 323.33 25.4037ZM325.643 27.9575C325.645 28.044 325.611 28.1274 325.549 28.188L323.552 30.2037C323.493 30.2629 323.414 30.2963 323.33 30.2963C323.247 30.2963 323.167 30.2629 323.109 30.2037L321.111 28.188C321.049 28.1274 321.015 28.0439 321.017 27.9574C321.019 27.8709 321.056 27.789 321.121 27.731C322.396 26.6521 324.264 26.6521 325.54 27.731C325.604 27.7891 325.642 27.871 325.643 27.9575Z" fill="white"/>
<path fill-rule="evenodd" clip-rule="evenodd" d="M309.667 19.6666H308.667C308.114 19.6666 307.667 20.1143 307.667 20.6666V29.3333C307.667 29.8856 308.114 30.3333 308.667 30.3333H309.667C310.219 30.3333 310.667 29.8856 310.667 29.3333V20.6666C310.667 20.1143 310.219 19.6666 309.667 19.6666ZM304 22H305C305.552 22 306 22.4477 306 23V29.3333C306 29.8856 305.552 30.3333 305 30.3333H304C303.448 30.3333 303 29.8856 303 29.3333V23C303 22.4477 303.448 22 304 22ZM300.333 24.3333H299.333C298.781 24.3333 298.333 24.781 298.333 25.3333V29.3333C298.333 29.8856 298.781 30.3333 299.333 30.3333H300.333C300.886 30.3333 301.333 29.8856 301.333 29.3333V25.3333C301.333 24.781 300.886 24.3333 300.333 24.3333ZM295.667 26.3333H294.667C294.114 26.3333 293.667 26.781 293.667 27.3333V29.3333C293.667 29.8856 294.114 30.3333 294.667 30.3333H295.667C296.219 30.3333 296.667 29.8856 296.667 29.3333V27.3333C296.667 26.781 296.219 26.3333 295.667 26.3333Z" fill="white"/>
<path d="M37.3207 30.2563C40.0087 30.2563 41.6053 28.1543 41.6053 24.5947C41.6053 23.2544 41.349 22.1265 40.8583 21.2549C40.1478 19.8999 38.9247 19.1675 37.3793 19.1675C35.0795 19.1675 33.4535 20.7129 33.4535 22.8809C33.4535 24.917 34.9183 26.3965 36.9325 26.3965C38.1703 26.3965 39.1737 25.8179 39.6718 24.8145H39.6937C39.6937 24.8145 39.723 24.8145 39.7303 24.8145C39.745 24.8145 39.7963 24.8145 39.7963 24.8145C39.7963 27.2314 38.8807 28.6743 37.3353 28.6743C36.4271 28.6743 35.724 28.1763 35.4823 27.3779H33.6C33.9149 29.1138 35.3871 30.2563 37.3207 30.2563ZM37.3866 24.895C36.1708 24.895 35.3065 24.0308 35.3065 22.8223C35.3065 21.6431 36.2147 20.7422 37.3939 20.7422C38.5731 20.7422 39.4813 21.6577 39.4813 22.8516C39.4813 24.0308 38.5951 24.895 37.3866 24.895Z" fill="white"/>
<path d="M44.6965 30.1538C45.3923 30.1538 45.8683 29.6558 45.8683 28.9966C45.8683 28.3301 45.3923 27.8394 44.6965 27.8394C44.008 27.8394 43.5246 28.3301 43.5246 28.9966C43.5246 29.6558 44.008 30.1538 44.6965 30.1538ZM44.6965 24.6606C45.3923 24.6606 45.8683 24.1699 45.8683 23.5107C45.8683 22.8442 45.3923 22.3535 44.6965 22.3535C44.008 22.3535 43.5246 22.8442 43.5246 23.5107C43.5246 24.1699 44.008 24.6606 44.6965 24.6606Z" fill="white"/>
<path d="M52.7241 30H54.5332V28.0298H55.9614V26.4331H54.5332V19.4312H51.8672C49.9995 22.2437 48.5127 24.5947 47.5605 26.3452V28.0298H52.7241V30ZM49.311 26.3672C50.5415 24.1992 51.6401 22.4634 52.6509 20.9692H52.7534V26.4771H49.311V26.3672Z" fill="white"/>
<path d="M59.99 30H61.8797V19.4312H59.9973L57.2361 21.3647V23.1812L59.8655 21.3354H59.99V30Z" fill="white"/>
<defs>
<clipPath id="clip0">
<rect width="40" height="74" fill="white" transform="translate(273 734) rotate(-90)"/>
</clipPath>
</defs>
</svg>
